<svg width="514" height="400" viewBox="0 0 514 400" fill="none" xmlns="http://www.w3.org/2000/svg">
<path d="M37.5297 399.278C37.5297 399.278 -26.2945 325.608 14.3093 238.93C54.913 152.252 109.448 195.845 106.81 94.958C104.171 -5.92853 232.23 -14.5924 272.993 14.6582C313.756 43.9088 313.51 79.1414 397.66 67.4865C481.81 55.8316 497.882 153.001 475.99 202.536C444.929 272.784 562.192 261.197 488.304 399.278H37.5297Z" fill="#EBF3FA"/>
<path opacity="0.3" d="M355.038 225.923C355.038 225.923 371.166 157.565 425.575 150.05C425.575 150.05 436.161 148.749 439.685 160.406C443.21 172.064 422.162 172.146 409.153 176.836C396.143 181.527 365.811 201.401 355.038 225.923Z" fill="#BDD0FB"/>
<path opacity="0.3" d="M353.802 213.131C353.802 213.131 348.146 156.508 387.839 136.413C387.839 136.413 395.608 132.626 401.379 140.628C407.151 148.631 391.05 154.241 382.309 161.261C373.568 168.281 355.593 191.503 353.802 213.131Z" fill="#BDD0FB"/>
<path d="M60.2453 347.86C51.8445 328.719 82.3142 312.275 82.3142 312.275C82.3142 312.275 122.464 325.27 128.229 321.707C133.993 318.143 96.0717 303.891 96.0717 303.891C105.428 294.737 141.306 286.346 141.306 286.346C141.306 286.346 165.508 319.744 170.218 314.87C174.928 309.996 147.285 286.385 147.285 286.385C159.478 281.421 177.871 285.496 177.871 285.496C204.357 294.925 190.88 328.449 190.88 328.449C190.88 328.449 199.517 339.843 216.673 347.071C216.673 347.071 220.123 348.179 224.927 350.916L222.25 353.072C221.453 352.531 220.654 352.031 219.85 351.58H219.836L219.8 351.561C219.283 351.295 218.547 350.919 217.627 350.467C215.52 349.526 214.006 348.777 212.975 348.215C206.474 345.161 197.67 341.456 194.209 341.979C194.145 341.4 194.005 340.832 193.793 340.29L194.209 341.979C197.535 355.498 175.939 375.585 161.064 383.247C146.189 390.909 148.854 382.829 151.022 371.447C153.19 360.065 168.833 350.006 171.242 344.287C173.651 338.568 165.569 341.284 157.603 348.794C149.636 356.304 152.219 368.242 139.526 380.625C126.833 393.009 95.5285 375.585 95.5285 375.585C107.393 370.885 120.197 351.928 118.22 348.138C116.243 344.348 91.2968 364.966 86.5774 367.148C81.858 369.33 68.6436 367.01 60.2453 347.86Z" fill="#BDD0FB"/>
<path d="M443.859 370.882C456.115 356.422 433.892 334.244 433.892 334.244C433.892 334.244 395.637 335.145 391.55 330.556C387.463 325.967 424.11 323.398 424.11 323.398C418.348 313.018 389.348 296.441 389.348 296.441C389.348 296.441 359.67 319.2 356.839 313.747C354.007 308.294 384.144 294.935 384.144 294.935C374.833 287.466 357.795 286.244 357.795 286.244C332.336 287.584 335.371 320.204 335.371 320.204C335.371 320.204 324.916 327.869 308.136 329.711C308.136 329.711 304.853 329.778 299.969 330.918L301.739 333.486C302.569 333.221 303.393 332.996 304.211 332.811C304.213 332.809 304.215 332.809 304.218 332.809C304.22 332.809 304.223 332.809 304.225 332.811H304.261C304.778 332.714 305.517 332.569 306.434 332.419C308.51 332.147 310.009 331.896 311.059 331.666C317.497 330.701 326.111 329.754 328.981 331.106C329.187 330.62 329.456 330.162 329.78 329.745C329.539 330.179 329.261 330.631 328.981 331.106C322.593 341.986 336.16 365.038 347.103 375.548C358.046 386.059 357.824 378.344 358.886 367.893C359.948 357.443 348.957 344.651 348.344 339.056C347.731 333.46 354.036 337.911 359.028 346.505C364.02 355.099 358.673 364.799 366.512 378.853C374.35 392.907 406.051 385.854 406.051 385.854C396.957 378.696 390.734 358.918 393.44 356.127C396.146 353.337 412.482 377.721 416.018 380.837C419.555 383.954 431.606 385.339 443.859 370.882Z" fill="#BDD0FB"/>
<path opacity="0.5" d="M139 90.8008C151.63 69.6082 188.321 87.6071 188.321 87.6071C188.321 87.6071 203.365 135.093 210.74 138.19C218.115 141.288 205.808 95.0785 205.808 95.0785C221.019 97.7918 253.68 126.511 253.68 126.511C253.68 126.511 238.185 172.662 246.096 173.848C254.006 175.033 257.731 132.288 257.731 132.288C270.861 140.602 279.556 161.068 279.556 161.068C288.655 192.981 247.209 203.016 247.209 203.016C247.209 203.016 242.185 219.125 247.001 240.566C247.001 240.566 248.302 244.641 248.966 251.133L245.06 250.039C245.034 248.902 244.966 247.791 244.848 246.71C244.85 246.707 244.851 246.703 244.851 246.699C244.851 246.695 244.85 246.692 244.848 246.688C244.848 246.674 244.848 246.657 244.848 246.642C244.749 245.964 244.606 244.996 244.418 243.816C243.88 241.143 243.556 239.193 243.394 237.802C241.871 229.464 239.394 218.464 236.517 215.497C237.029 215.038 237.48 214.515 237.857 213.94L236.517 215.497C225.818 227.958 191.705 220.984 174.144 211.946C156.582 202.908 166.177 199.926 178.595 194.205C191.013 188.484 211.406 196.619 218.554 195.011C225.702 193.404 217.56 187.528 204.869 185.001C192.179 182.473 182.494 193.162 161.9 189.454C141.306 185.746 136.577 143.726 136.577 143.726C149.226 151.904 176.21 151.209 178.503 146.705C180.797 142.2 143.874 132.375 138.544 129.324C133.214 126.272 126.37 111.996 139 90.8008Z" fill="#BDD0FB"/>
<path d="M280.024 129.591C280.007 128.29 280.254 126.998 280.749 125.794C281.221 124.654 281.928 123.625 282.822 122.774C283.751 121.901 284.846 121.223 286.043 120.783C287.4 120.284 288.838 120.038 290.284 120.058C291.74 120.041 293.188 120.286 294.557 120.783C295.765 121.218 296.871 121.896 297.808 122.774C298.702 123.625 299.409 124.654 299.882 125.794C300.376 126.998 300.622 128.29 300.606 129.591C300.624 130.883 300.377 132.164 299.882 133.357C299.402 134.484 298.696 135.501 297.808 136.346C296.871 137.223 295.764 137.901 294.557 138.337C293.187 138.833 291.74 139.078 290.284 139.061C288.838 139.08 287.401 138.835 286.043 138.337C284.847 137.896 283.752 137.218 282.822 136.346C281.933 135.502 281.228 134.485 280.749 133.357C280.252 132.165 280.006 130.883 280.024 129.591ZM297.946 111.875H282.648L280.476 59.5752H300.119L297.946 111.875Z" fill="#4D50FB"/>
<path d="M233.808 78.4555C233.799 77.4621 233.99 76.477 234.368 75.5587C234.732 74.684 235.274 73.8947 235.959 73.2412C236.673 72.5717 237.513 72.0521 238.431 71.7131C239.473 71.3325 240.576 71.1459 241.685 71.1627C242.803 71.1475 243.914 71.3339 244.966 71.7131C245.893 72.0479 246.742 72.5678 247.462 73.2412C248.148 73.8947 248.689 74.684 249.053 75.5587C249.434 76.4824 249.625 77.4733 249.615 78.4724C249.627 79.4662 249.436 80.452 249.053 81.3692C248.685 82.2346 248.144 83.0151 247.462 83.6625C246.743 84.3364 245.893 84.8564 244.966 85.1906C243.914 85.5698 242.803 85.7562 241.685 85.741C240.576 85.7578 239.473 85.5712 238.431 85.1906C237.513 84.8525 236.672 84.3328 235.959 83.6625C235.275 83.0102 234.734 82.2237 234.368 81.3523C233.985 80.4353 233.794 79.4493 233.808 78.4555ZM247.568 64.8597H235.817L234.154 24.7195H249.229L247.568 64.8597Z" fill="#AEC3FF"/>
<path d="M462.022 146.289C462.012 145.29 462.204 144.299 462.584 143.375C462.949 142.501 463.49 141.712 464.175 141.058C464.888 140.388 465.729 139.868 466.647 139.53C467.69 139.149 468.794 138.963 469.904 138.98C471.021 138.964 472.131 139.151 473.182 139.53C474.11 139.864 474.96 140.384 475.68 141.058C476.365 141.712 476.905 142.501 477.269 143.375C477.652 144.299 477.844 145.29 477.834 146.289C477.846 147.283 477.654 148.269 477.269 149.186C476.901 150.051 476.361 150.831 475.68 151.479C474.96 152.153 474.11 152.673 473.182 153.007C472.131 153.386 471.021 153.572 469.904 153.558C468.794 153.573 467.69 153.387 466.647 153.007C465.729 152.668 464.889 152.149 464.175 151.479C463.494 150.831 462.953 150.051 462.584 149.186C462.201 148.269 462.01 147.283 462.022 146.289ZM475.782 132.693H464.035L462.37 92.5532H477.445L475.782 132.693Z" fill="#7D97F4"/>
<path d="M373.155 388.014L169.12 387.708C153.627 387.684 143.84 371.051 151.345 357.496L253.642 172.786C261.403 158.784 281.56 158.801 289.28 172.839L391.018 357.856C398.485 371.433 388.648 388.039 373.155 388.014Z" fill="#E6EFFF"/>
<path d="M373.143 395.732L169.108 395.416C164.227 395.409 159.432 394.128 155.196 391.702C150.961 389.275 147.432 385.786 144.957 381.579C142.481 377.372 141.146 372.592 141.082 367.712C141.019 362.831 142.229 358.018 144.594 353.748L246.89 169.037C251.918 159.96 261.113 154.553 271.489 154.565C281.864 154.577 291.042 160.018 296.042 169.109L397.783 354.136C400.134 358.413 401.33 363.23 401.252 368.111C401.173 372.991 399.823 377.767 397.336 381.966C394.848 386.166 391.308 389.644 387.065 392.058C382.823 394.471 378.024 395.737 373.143 395.73V395.732ZM271.465 170.022C269.202 170.001 266.976 170.597 265.025 171.745C263.075 172.894 261.474 174.551 260.394 176.539L158.098 361.236C157.033 363.158 156.488 365.324 156.516 367.521C156.545 369.718 157.146 371.87 158.26 373.764C159.374 375.658 160.963 377.228 162.87 378.32C164.776 379.412 166.935 379.988 169.132 379.99L373.167 380.297C375.364 380.3 377.524 379.73 379.434 378.644C381.344 377.557 382.937 375.991 384.057 374.101C385.177 372.211 385.784 370.061 385.819 367.864C385.854 365.667 385.316 363.499 384.257 361.574L282.516 176.556C281.441 174.565 279.845 172.904 277.898 171.751C275.951 170.598 273.727 169.997 271.465 170.012V170.022Z" fill="#F16E03"/>
<path d="M251.421 347.973C251.398 345.472 251.881 342.992 252.84 340.683C253.753 338.495 255.111 336.522 256.828 334.889C258.616 333.216 260.72 331.918 263.018 331.072C265.432 330.163 268.147 329.709 271.163 329.711C273.96 329.677 276.74 330.147 279.371 331.099C281.689 331.94 283.813 333.244 285.611 334.932C287.321 336.568 288.674 338.541 289.582 340.726C290.532 343.039 291.007 345.519 290.98 348.019C291.006 350.504 290.523 352.969 289.56 355.261C288.637 357.424 287.28 359.374 285.572 360.992C283.769 362.676 281.642 363.975 279.32 364.808C276.688 365.75 273.908 366.212 271.112 366.17C268.09 366.17 265.376 365.707 262.97 364.782C260.674 363.933 258.572 362.629 256.792 360.948C255.089 359.327 253.737 357.372 252.821 355.205C251.865 352.916 251.388 350.454 251.421 347.973ZM285.881 314.01L256.493 313.967L252.481 213.544L290.197 213.602L285.881 314.01Z" fill="#F16E03"/>
<path d="M127.36 276.335C127.36 276.335 124.425 289.356 124.915 302.672C125.352 314.592 123.935 392.956 123.935 392.956H133.504C133.504 392.956 147.128 331.589 147.638 326.744C148.147 321.899 154.998 273.436 154.998 273.436L127.36 276.335Z" fill="#09005D"/>
<path d="M133.726 272.762C133.726 272.762 135.927 289.503 139.671 301.4C143.415 313.296 161.822 392.944 161.822 392.944H171.394C171.394 392.944 169.632 331.577 168.98 326.732C168.328 321.887 163.473 273.424 163.473 273.424L133.726 272.762Z" fill="#1B1173"/>
<path d="M162.604 392.926V399.606H180.823C181.047 399.605 181.265 399.532 181.444 399.398C181.624 399.265 181.755 399.077 181.82 398.862C181.885 398.648 181.879 398.418 181.803 398.208C181.727 397.997 181.586 397.816 181.4 397.692C178.745 395.917 174.469 393.472 170.501 392.926H162.604Z" fill="#433A9C"/>
<path d="M124.422 392.926V399.606H142.636C142.86 399.605 143.077 399.532 143.257 399.398C143.436 399.265 143.568 399.077 143.633 398.862C143.697 398.648 143.691 398.418 143.616 398.208C143.54 397.997 143.399 397.816 143.213 397.692C140.557 395.917 136.282 393.472 132.313 392.926H124.422Z" fill="#433A9C"/>
<path d="M157.291 194.886C157.291 194.886 163.568 185.372 156.364 184.443C150.841 183.73 148.567 185.377 148.567 185.377C148.567 185.377 142.209 184.674 138.728 187.692C136.343 189.758 127.587 205.797 141.743 211.591C155.899 217.384 152.883 202.536 152.883 202.536L157.291 194.886Z" fill="#286589"/>
<path d="M156.364 184.443C150.841 183.73 148.567 185.377 148.567 185.377C148.567 185.377 142.209 184.674 138.728 187.692C136.343 189.758 127.587 205.797 141.743 211.591C148.398 214.316 151.256 212.479 152.42 209.768C138.988 213.546 137.533 197.358 139.746 192.752C141.996 188.071 147.396 190.231 147.396 190.231C149.509 184.921 156.393 185.49 159.225 185.905C158.713 185.172 157.815 184.631 156.364 184.443Z" fill="#22546B"/>
<path d="M148.473 199.528C148.473 199.528 146.617 197.672 145.224 199.528C143.831 201.385 144.76 205.563 147.082 205.805C147.082 205.805 146.385 211.84 141.743 211.598V216.47H152.652V212.757C152.652 212.757 159.382 209.974 159.148 204.404C158.914 198.835 157.291 194.888 157.291 194.888C157.291 194.888 153.579 199.065 148.473 199.528Z" fill="#EA914F"/>
<path d="M150.143 214.316C151.223 214.765 151.034 215.446 151.083 216.467H152.652V212.755C152.652 212.755 149.996 213.595 146.134 211.391C146.136 211.391 148.388 213.585 150.143 214.316Z" fill="#DD7635"/>
<path d="M152.376 190.645C152.376 190.645 146.723 188.395 146.061 190.082C145.629 191.188 146.728 192.142 148.234 193.102L146.904 193.322C146.837 193.332 146.775 193.362 146.725 193.407C146.674 193.452 146.638 193.51 146.62 193.575C146.602 193.64 146.604 193.709 146.624 193.773C146.644 193.838 146.683 193.895 146.735 193.938C147.107 194.237 148.13 194.437 150.269 194.512L152.376 190.645Z" fill="#EA914F"/>
<path d="M192.746 204.805C181.965 196.817 152.533 190.43 152.533 190.43L150.095 194.85C150.095 194.85 176.825 205.209 175.061 206.754C174.025 207.664 160.961 213.648 156.541 215.664C155.586 216.098 154.547 216.314 153.499 216.296L139.98 216.219C139.98 216.219 130.216 215.058 122.534 223.883C115.666 231.784 103.995 250.085 103.995 250.085L123.657 279L125.829 282.194L125.849 282.155L125.829 282.426C125.829 282.426 126.529 282.5 127.761 282.616C134.081 283.201 154.337 284.803 165.06 282.529L165.356 282.462L164.845 235.017C181.965 221.465 190.136 211.002 193.062 207.712C193.244 207.505 193.38 207.263 193.463 207.001C193.546 206.739 193.574 206.462 193.544 206.189C193.514 205.916 193.428 205.651 193.29 205.413C193.153 205.175 192.968 204.968 192.746 204.805ZM126.771 269.501L124.852 265.301L118.737 251.954L128.876 240.608L127.053 265.525L126.771 269.501Z" fill="#F87000"/>
<path d="M124.852 265.305L126.771 269.496L125.839 282.145L125.82 282.184L123.645 278.99L124.852 265.305Z" fill="#E5AB51"/>
<g style="mix-blend-mode:multiply" opacity="0.29">
<path d="M160.273 233.312C158.453 234.635 158.914 246.367 158.462 253.701C157.709 265.983 156.975 276.612 157.518 283.465C160.05 283.325 162.569 283.009 165.057 282.519L165.354 282.452L164.845 235.016C181.965 221.464 190.137 211.002 193.062 207.711C193.242 207.505 193.378 207.264 193.46 207.002C193.542 206.741 193.569 206.466 193.539 206.194C193.509 205.921 193.423 205.658 193.287 205.421C193.15 205.184 192.966 204.977 192.746 204.814C192.746 204.814 179.213 219.559 160.273 233.312Z" fill="#F87000"/>
</g>
<path d="M168.97 326.732C168.487 323.235 165.832 297.04 164.383 282.708L157.506 283.466C157.506 283.466 167.539 365.953 168.198 392.944H171.382C171.382 392.944 169.631 331.577 168.97 326.732Z" fill="#09005D"/>
<g clip-path="url(#clip0)">
<path d="M131.208 175.016C131.208 181.054 128.864 186.736 124.609 191.016C120.356 195.293 114.694 197.669 108.665 197.707C108.65 197.707 108.634 197.708 108.619 197.707C108.585 197.708 108.551 197.708 108.516 197.708C102.456 197.708 96.757 195.349 92.4712 191.062C88.1846 186.776 85.8242 181.078 85.8242 175.016C85.8242 168.955 88.1846 163.258 92.4712 158.971C96.757 154.685 102.456 152.325 108.516 152.325C108.551 152.325 108.584 152.325 108.619 152.326C108.635 152.326 108.651 152.326 108.667 152.326C114.695 152.366 120.356 154.741 124.609 159.018C128.864 163.298 131.208 168.98 131.208 175.016Z" fill="#FF9B49"/>
<path d="M131.208 175.017C131.208 181.054 128.864 186.736 124.608 191.016C120.355 195.293 114.694 197.669 108.665 197.707C108.65 197.707 108.634 197.708 108.619 197.707V152.326C108.635 152.326 108.651 152.326 108.666 152.327C114.695 152.366 120.356 154.741 124.608 159.018C128.864 163.299 131.208 168.98 131.208 175.017Z" fill="#F16E03"/>
<path d="M108.628 161.88C108.665 161.88 108.596 161.88 108.628 161.88V161.88Z" fill="black"/>
<path d="M112.409 165.662V175.805C112.409 177.89 110.713 179.587 108.629 179.587H108.619C107.645 179.558 106.639 179.165 105.954 178.48C105.241 177.765 104.847 176.816 104.847 175.805V165.662C104.847 163.6 106.559 161.939 108.619 161.88H108.629C110.713 161.88 112.409 163.577 112.409 165.662Z" fill="white"/>
<path d="M108.628 179.587C108.596 179.587 108.66 179.587 108.628 179.587V179.587Z" fill="black"/>
<path d="M112.207 184.38C112.207 186.354 110.602 187.96 108.628 187.96H108.619C106.65 187.955 105.049 186.352 105.049 184.38C105.049 182.41 106.65 180.807 108.619 180.802H108.628C110.602 180.802 112.207 182.407 112.207 184.38Z" fill="white"/>
<path d="M112.207 184.38C112.207 186.354 110.602 187.96 108.628 187.96H108.619V180.802H108.628C110.602 180.802 112.207 182.407 112.207 184.38Z" fill="#DDEBF0"/>
<path d="M112.409 165.662V175.805C112.409 177.89 110.713 179.587 108.628 179.587H108.619V161.88H108.628C110.713 161.88 112.409 163.577 112.409 165.662Z" fill="#DDEBF0"/>
</g>
<defs>
<clipPath id="clip0">
<rect width="45.3835" height="45.3835" fill="white" transform="translate(85.8242 152.325)"/>
</clipPath>
</defs>
</svg>
