<svg width="20" height="20" viewBox="0 0 20 20" fill="none" xmlns="http://www.w3.org/2000/svg">
<path d="M20 10C20 12.6605 18.9671 15.1645 17.0918 17.0508C15.2176 18.9355 12.7226 19.9828 10.0656 19.9995C10.0591 19.9995 10.0519 20 10.0453 19.9995C10.0305 20 10.0153 20 10 20C7.32925 20 4.81796 18.9601 2.92923 17.0711C1.04019 15.1825 0 12.6711 0 10C0 7.32895 1.04019 4.81796 2.92923 2.92892C4.81796 1.04019 7.32925 0 10 0C10.0153 0 10.0301 0 10.0453 0.000457766C10.0523 0.000457766 10.0594 0.000457766 10.0664 0.000762937C12.7231 0.0180054 15.2179 1.06491 17.0918 2.94968C18.9671 4.83597 20 7.33978 20 10Z" fill="#FD003A"/>
<path d="M20.0001 10C20.0001 12.6606 18.9672 15.1645 17.0919 17.0508C15.2177 18.9356 12.7227 19.9828 10.0657 19.9996C10.0591 19.9996 10.052 20 10.0454 19.9996V0.000488281C10.0524 0.000488281 10.0594 0.000488281 10.0665 0.000793453C12.7232 0.0180359 15.218 1.06494 17.0919 2.94971C18.9672 4.836 20.0001 7.33981 20.0001 10Z" fill="#F70039"/>
<path d="M10.0498 4.21156C10.0661 4.21126 10.0356 4.21156 10.0498 4.21156V4.21156Z" fill="black"/>
<path d="M11.7158 5.87735V10.3476C11.7158 11.2664 10.9684 12.014 10.0497 12.014H10.0454C9.61621 12.0015 9.1731 11.8281 8.87128 11.5262C8.55679 11.2114 8.3833 10.793 8.3833 10.3476V5.87735C8.3833 4.96869 9.1377 4.23703 10.0454 4.21094H10.0497C10.9684 4.21094 11.7158 4.95862 11.7158 5.87735Z" fill="white"/>
<path d="M10.0495 12.0142C10.0353 12.0142 10.0637 12.0144 10.0495 12.0142V12.0142Z" fill="black"/>
<path d="M11.6265 14.1266C11.6265 14.9965 10.9191 15.7039 10.0492 15.7039H10.0452C9.17758 15.7019 8.47217 14.9952 8.47217 14.1266C8.47217 13.2582 9.17758 12.5515 10.0452 12.5496H10.0492C10.9191 12.5496 11.6265 13.257 11.6265 14.1266Z" fill="white"/>
<path d="M11.6267 14.1266C11.6267 14.9965 10.9193 15.7039 10.0494 15.7039H10.0454V12.5496H10.0494C10.9193 12.5496 11.6267 13.257 11.6267 14.1266Z" fill="#DDEBF0"/>
<path d="M11.7158 5.87735V10.3476C11.7158 11.2664 10.9684 12.014 10.0497 12.014H10.0454V4.21094H10.0497C10.9684 4.21094 11.7158 4.95862 11.7158 5.87735Z" fill="#DDEBF0"/>
</svg>
