<svg width="290" height="360" viewBox="0 0 290 360" fill="none" xmlns="http://www.w3.org/2000/svg">
<path d="M255.771 350.131H32.5984C23.9578 350.127 15.6721 347.179 9.56026 341.932C3.44843 336.686 0.0100444 329.57 0 322.148V27.9597C0.0171982 20.5448 3.45576 13.4382 9.56213 8.19731C15.6685 2.95638 23.9446 0.0086058 32.5767 0H247.863C256.5 0.00862019 264.78 2.95959 270.887 8.20554C276.994 13.4515 280.429 20.5641 280.439 27.983V311.139H278.018V27.9597C278.009 21.092 274.83 14.5078 269.176 9.65161C263.523 4.79545 255.858 2.06399 247.863 2.0566H32.5767C24.5817 2.06399 16.9165 4.79545 11.2631 9.65161C5.60976 14.5078 2.42992 21.092 2.42132 27.9597V322.148C2.43279 329.014 5.61389 335.596 11.267 340.45C16.92 345.304 24.5835 348.035 32.5767 348.042H255.75L255.771 350.131Z" fill="#1B75BC"/>
<path d="M275.547 348.247L251.843 336.489V360L275.547 348.247Z" fill="#1B75BC"/>
<path d="M279.085 329.337C276.926 329.337 274.816 328.787 273.021 327.757C271.226 326.727 269.827 325.262 269.001 323.549C268.175 321.836 267.958 319.951 268.38 318.132C268.801 316.313 269.84 314.643 271.367 313.332C272.893 312.02 274.838 311.127 276.955 310.766C279.073 310.404 281.267 310.589 283.262 311.299C285.256 312.009 286.961 313.21 288.16 314.752C289.36 316.294 290 318.107 290 319.961C289.997 322.447 288.846 324.83 286.8 326.588C284.753 328.346 281.979 329.334 279.085 329.337ZM279.085 312.665C277.405 312.665 275.763 313.093 274.366 313.895C272.969 314.697 271.881 315.836 271.238 317.169C270.595 318.502 270.427 319.969 270.754 321.385C271.082 322.8 271.891 324.1 273.079 325.12C274.267 326.14 275.78 326.835 277.428 327.117C279.075 327.398 280.783 327.254 282.335 326.702C283.887 326.149 285.214 325.214 286.147 324.015C287.08 322.815 287.578 321.404 287.578 319.961C287.573 318.029 286.675 316.178 285.083 314.813C283.491 313.448 281.334 312.681 279.085 312.679V312.665Z" fill="#1B75BC"/>
</svg>
