<svg width="387" height="370" viewBox="0 0 387 370" fill="none" xmlns="http://www.w3.org/2000/svg">
<path d="M339.753 319.921C330.207 329.582 321.664 335.256 315.124 339.548C251.335 381.36 178.424 369.308 155.874 365.195C119.502 358.549 88.8 353.861 62.4199 330.464C2.47843 277.301 5.39354 166.398 51.1971 97.6954C56.6267 89.5503 102.36 22.9999 175.436 13.6213C177.222 13.3926 178.556 13.2617 179.725 13.1401C191.028 11.9648 261.081 5.76307 318.2 52.7433C326.377 59.4685 339.535 71.5983 351.738 90.0976C396.354 157.737 396.494 262.504 339.753 319.921Z" fill="url(#paint0_linear)"/>
<path d="M307.492 65.7045C308.264 56.4581 336.248 47.8714 334.032 28.3038L317.839 16.8126C317.839 16.8126 313.476 41.2467 305.054 48.3328C296.633 55.419 294.223 48.7175 296.99 42.6071C299.757 36.4966 313.993 23.3832 312.073 15.3346C312.073 15.3346 310.509 8.97159 302.796 12.5755C295.084 16.1794 282.856 7.6469 279.875 1.84973C279.875 1.84973 279.018 5.57922 273.11 13.0964C267.202 20.6135 260.714 27.7618 267.065 33.6092C273.417 39.4566 284.376 43.6263 282.828 48.7149C281.28 53.8035 259.747 50.378 257.528 33.3408C257.528 33.3408 247.216 44.5782 247.389 49.3376C247.563 54.0969 254.132 60.8209 267.18 61.318C280.229 61.815 286.058 65.9451 284.896 69.7658C283.734 73.5865 246.112 66.4726 245.199 52.4219C245.199 52.4219 235.767 79.2356 236.411 82.7853C237.055 86.335 253.183 90.5629 263.815 89.344C274.446 88.1251 283.177 94.3202 284.38 98.2665C285.583 102.213 273.152 96.4857 266.605 96.9947C260.059 97.5037 234.681 88.2586 234.681 88.2586C234.681 88.2586 237.231 91.0997 235.397 100.622C233.564 110.145 236.106 126.899 242.166 127.076C248.226 127.254 277.022 122.427 286.03 124.181C295.039 125.936 301.901 129.258 297.016 131.46C292.131 133.663 280.466 131.573 271.662 132.542C262.859 133.511 240.543 138.814 236.717 134.038C236.717 134.038 238.464 160.02 261.529 168.139C261.529 168.139 274.153 164.727 282.601 155.773C291.049 146.819 294.998 143.435 298.912 145.182C302.827 146.928 296.929 153.056 291.526 158.498C286.123 163.939 273.8 176.847 268.004 176.345C268.004 176.345 303.435 186.537 314.408 163.918C324.703 142.702 323.09 139.328 322.85 138.993C323.833 140.183 353.855 175.892 380.117 130.647C380.117 130.647 371.239 139.295 363.473 136.363C355.707 133.43 341.356 136.648 342.704 130.904C344.051 125.16 372.23 135.875 380.485 126.269C388.74 116.663 387.192 97.3847 375.646 89.5158C375.646 89.5158 372.96 100.825 360.95 105.189C348.941 109.553 331.564 112.173 337.249 103.835C342.934 95.4968 376.06 89.9376 379.401 82.0979C382.742 74.2581 362.062 52.5568 362.062 52.5568C362.062 52.5568 360.608 56.778 350.895 68.2891C341.182 79.8001 327.753 90.8961 327.016 86.7686C326.28 82.6412 335.553 76.0164 343.617 69.7857C351.682 63.5549 357.992 51.9222 354.907 47.4748C351.823 43.0275 339.064 31.8681 339.064 31.8681C339.064 31.8681 329.559 49.0811 326.014 57.291C322.47 65.5009 306.722 74.9496 307.492 65.7045ZM326.694 120.544C316.355 127.103 319.042 117.107 322.312 110.761C324.794 105.93 337.032 113.983 326.694 120.542V120.544ZM318.497 98.7741C311.755 103.269 307.993 101.418 309.549 97.1877C313.131 87.4852 325.242 94.2765 318.502 98.7715L318.497 98.7741ZM307.167 76.8097C303.67 79.4828 301.641 79.586 301.168 74.6151C300.694 69.6442 310.665 74.1391 307.167 76.8097Z" fill="#91B3FA"/>
<path d="M52.0983 5.52759C51.7889 3.88958 53.7892 2.83062 54.9883 3.98873C67.1696 15.7549 96.3418 50.8764 88.1042 111.431C77.7697 187.408 93.235 215.4 112.733 232.614C112.733 232.614 85.743 224.269 69.0852 195.853C28.1878 126.084 57.5861 34.6668 52.0983 5.52759Z" fill="#91B3FA"/>
<g style="mix-blend-mode:soft-light">
<path d="M61.1601 29.4307C62.5852 37.9248 63.8438 46.4415 64.7877 54.9938C65.7766 63.5377 66.5033 72.1032 66.9678 80.6903C67.3961 89.273 67.6632 97.8624 67.5654 106.449C67.5072 115.042 67.0788 123.613 66.6188 132.221C66.2076 140.827 65.7436 149.495 66.1666 158.236C66.5897 166.978 68.0413 175.774 71.0701 184.06C71.8276 186.125 72.6248 188.184 73.5357 190.175C74.4109 192.186 75.3747 194.157 76.3728 196.11C78.3888 200.016 80.6768 203.776 83.2197 207.362C88.336 214.518 94.5391 220.889 101.394 226.303C101.736 226.582 102.175 226.713 102.615 226.668C103.054 226.623 103.457 226.405 103.736 226.063C104.015 225.721 104.146 225.282 104.101 224.842C104.056 224.403 103.838 224 103.496 223.721C101.866 222.358 100.253 220.976 98.7075 219.527C97.9235 218.816 97.1712 218.073 96.4071 217.341C95.6707 216.582 94.9039 215.851 94.1927 215.07C91.2911 211.999 88.6153 208.723 86.1864 205.267C81.3067 198.385 77.4305 190.74 74.5233 182.83C73.1097 178.856 71.9978 174.782 71.197 170.641C70.4139 166.482 69.91 162.275 69.6886 158.048C69.214 149.564 69.6013 140.981 69.953 132.372C70.3046 123.763 70.573 115.106 70.4977 106.452C70.4712 102.126 70.3672 97.802 70.1857 93.4798C70.1077 91.3183 69.9887 89.1594 69.8723 87.0018C69.7348 84.8433 69.5841 82.6866 69.4202 80.5317C68.7398 71.9102 67.7936 63.3204 66.5818 54.7624C65.3258 46.2154 63.8451 37.708 62.0379 29.2641C62.0104 29.153 61.9414 29.0567 61.8451 28.995C61.7487 28.9333 61.6324 28.9109 61.52 28.9324C61.4076 28.9539 61.3078 29.0178 61.2411 29.1107C61.1743 29.2037 61.1458 29.3187 61.1614 29.432L61.1601 29.4307Z" fill="white"/>
</g>
<path d="M75.066 223.478C73.7268 226.329 69.2239 227.082 66.4727 224.932C51.2917 213.092 12.0045 176.507 17.0481 118.181C21.3064 68.9294 17.8664 41.7984 15.2606 29.5537C14.7107 26.9677 18.5195 25.3813 20.8423 27.2216C46.4741 47.5982 123.573 120.141 75.066 223.478Z" fill="#BDD0FB"/>
<g style="mix-blend-mode:soft-light">
<path d="M69.9618 223.355C69.8802 223.396 69.7953 223.43 69.708 223.456C68.9531 223.688 68.0977 223.373 67.7976 222.752C67.4579 222.047 33.8647 151.565 35.9866 82.8028C36.0064 82.1418 36.682 81.6288 37.495 81.6579C38.3081 81.687 38.9493 82.2489 38.9294 82.9112C36.8234 151.172 70.1971 221.212 70.5356 221.911C70.8 222.458 70.5422 223.06 69.9618 223.355Z" fill="white"/>
</g>
<path d="M28.188 86.7165V266.799C28.188 281.614 38.5925 293.728 51.6437 294.11C109.615 295.806 312.372 299.919 367.558 299.001C377.043 298.843 384.726 290.231 385 279.472C386.064 237.636 387.792 137.035 381.396 90.3297C380.05 80.495 372.733 73.1431 363.964 72.8219C315.392 71.0583 100.456 65.4607 45.2966 66.8727C35.7831 67.1027 28.188 75.9194 28.188 86.7165Z" fill="url(#paint1_linear)"/>
<path d="M38.1455 85.8391V256.932C38.1455 265.58 44.2639 272.628 51.8868 272.758L359.617 277.072C367.173 277.204 373.366 270.301 373.396 261.727L373.912 92.1638C373.932 86.0321 369.626 81.0083 364.224 80.8589L49.1661 73.6366C43.1243 73.47 38.1455 78.9816 38.1455 85.8391Z" fill="#91B3FA"/>
<path opacity="0.37" d="M45.1523 92.7216V249.823C45.1523 257.764 50.9363 264.233 58.1414 264.355L349.02 268.321C356.159 268.439 362.019 262.107 362.045 254.231L362.532 98.5333C362.55 92.9027 358.481 88.2901 353.375 88.1526L55.5674 81.5159C49.8562 81.3639 45.1523 86.4247 45.1523 92.7216Z" fill="white"/>
<g opacity="0.53">
<path opacity="0.53" d="M217.891 96.448H208.933V254.444H217.891V96.448Z" fill="white"/>
<path opacity="0.53" d="M232.859 96.4487H223.9V254.445H232.859V96.4487Z" fill="white"/>
<path opacity="0.53" d="M247.824 96.4487H238.866V254.445H247.824V96.4487Z" fill="white"/>
<path opacity="0.53" d="M262.793 96.4487H253.834V254.445H262.793V96.4487Z" fill="white"/>
<path opacity="0.53" d="M277.76 96.4487H268.802V254.445H277.76V96.4487Z" fill="white"/>
<path opacity="0.53" d="M292.726 96.4487H283.768V254.445H292.726V96.4487Z" fill="white"/>
<path opacity="0.53" d="M307.694 96.4487H298.736V254.445H307.694V96.4487Z" fill="white"/>
</g>
<path d="M217.891 171.758H208.933V254.444H217.891V171.758Z" fill="url(#paint2_linear)"/>
<path d="M232.858 200.174H223.899V254.441H232.858V200.174Z" fill="url(#paint3_linear)"/>
<path d="M247.824 129.942H238.866V254.442H247.824V129.942Z" fill="url(#paint4_linear)"/>
<path d="M262.793 224.534H253.834V254.444H262.793V224.534Z" fill="url(#paint5_linear)"/>
<path d="M277.76 146.586H268.802V254.441H277.76V146.586Z" fill="url(#paint6_linear)"/>
<path d="M292.726 165.263H283.768V254.444H292.726V165.263Z" fill="url(#paint7_linear)"/>
<path d="M307.694 185.558H298.736V254.441H307.694V185.558Z" fill="url(#paint8_linear)"/>
<path opacity="0.57" d="M71.0368 88.6993C66.8654 88.6991 62.7876 89.9358 59.3191 92.2531C55.8506 94.5704 53.1471 97.8642 51.5506 101.718C49.9541 105.572 49.5363 109.812 50.3499 113.904C51.1636 117.995 53.1721 121.753 56.1217 124.703C59.0712 127.652 62.8292 129.661 66.9204 130.475C71.0116 131.289 75.2523 130.871 79.1062 129.275C82.9601 127.679 86.2541 124.976 88.5716 121.507C90.8891 118.039 92.1261 113.961 92.1261 109.79C92.1261 104.197 89.9042 98.8323 85.9492 94.8771C81.9943 90.9219 76.6301 88.6997 71.0368 88.6993ZM71.0368 121.805C68.6601 121.805 66.3367 121.1 64.3605 119.78C62.3843 118.46 60.8439 116.583 59.9343 114.388C59.0247 112.192 58.7866 109.776 59.2502 107.445C59.7138 105.114 60.8582 102.973 62.5388 101.292C64.2194 99.6114 66.3605 98.467 68.6916 98.0034C71.0226 97.5398 73.4387 97.7778 75.6344 98.6875C77.8301 99.5971 79.7068 101.137 81.027 103.114C82.3473 105.09 83.0518 107.413 83.0515 109.79C83.0515 112.976 81.7857 116.032 79.5325 118.286C77.2793 120.539 74.2233 121.805 71.0368 121.805Z" fill="white"/>
<path opacity="0.57" d="M122.447 88.6993C118.276 88.6991 114.198 89.9358 110.729 92.2531C107.261 94.5704 104.557 97.8642 102.961 101.718C101.364 105.572 100.946 109.812 101.76 113.904C102.574 117.995 104.582 121.753 107.532 124.703C110.481 127.652 114.239 129.661 118.331 130.475C122.422 131.289 126.662 130.871 130.516 129.275C134.37 127.679 137.664 124.976 139.982 121.507C142.299 118.039 143.536 113.961 143.536 109.79C143.536 107.02 142.991 104.278 141.931 101.719C140.871 99.1602 139.318 96.8352 137.36 94.8767C135.401 92.9183 133.076 91.3647 130.518 90.3048C127.959 89.2449 125.216 88.6993 122.447 88.6993ZM122.447 121.805C120.07 121.805 117.747 121.1 115.771 119.78C113.794 118.46 112.254 116.583 111.344 114.388C110.435 112.192 110.197 109.776 110.66 107.445C111.124 105.114 112.268 102.973 113.949 101.292C115.629 99.6114 117.771 98.467 120.102 98.0034C122.433 97.5398 124.849 97.7778 127.045 98.6875C129.24 99.5971 131.117 101.137 132.437 103.114C133.757 105.09 134.462 107.413 134.462 109.79C134.462 112.976 133.196 116.032 130.943 118.286C128.689 120.539 125.633 121.805 122.447 121.805Z" fill="white"/>
<path opacity="0.57" d="M173.858 88.6993C169.686 88.6991 165.608 89.9358 162.14 92.2531C158.671 94.5704 155.968 97.8642 154.371 101.718C152.775 105.572 152.357 109.812 153.171 113.904C153.984 117.995 155.993 121.753 158.942 124.703C161.892 127.652 165.65 129.661 169.741 130.475C173.832 131.289 178.073 130.871 181.927 129.275C185.781 127.679 189.075 124.976 191.392 121.507C193.71 118.039 194.947 113.961 194.947 109.79C194.947 107.02 194.402 104.278 193.342 101.719C192.282 99.1602 190.729 96.8352 188.77 94.8767C186.812 92.9183 184.487 91.3647 181.928 90.3048C179.37 89.2449 176.627 88.6993 173.858 88.6993ZM173.858 121.805C171.481 121.805 169.158 121.1 167.181 119.78C165.205 118.46 163.665 116.583 162.755 114.388C161.845 112.192 161.607 109.776 162.071 107.445C162.535 105.114 163.679 102.973 165.36 101.292C167.04 99.6114 169.181 98.467 171.512 98.0034C173.843 97.5398 176.259 97.7778 178.455 98.6875C180.651 99.5971 182.528 101.137 183.848 103.114C185.168 105.09 185.873 107.413 185.872 109.79C185.872 112.976 184.606 116.032 182.353 118.286C180.1 120.539 177.044 121.805 173.858 121.805Z" fill="white"/>
<path opacity="0.24" d="M190.217 258.233L61.1388 257.268C59.9155 257.259 58.7453 256.767 57.8835 255.898C57.0217 255.03 56.5381 253.856 56.5381 252.633V186.31C56.5381 185.081 57.0264 183.902 57.8957 183.033C58.7649 182.163 59.9439 181.675 61.1732 181.675H190.251C190.86 181.675 191.463 181.795 192.025 182.027C192.588 182.26 193.099 182.602 193.529 183.032C193.96 183.462 194.301 183.974 194.535 184.536C194.768 185.098 194.887 185.701 194.887 186.31V253.602C194.887 254.213 194.765 254.819 194.53 255.383C194.294 255.947 193.95 256.459 193.515 256.889C193.081 257.32 192.566 257.66 192 257.891C191.434 258.121 190.828 258.238 190.217 258.233Z" fill="white"/>
<path opacity="0.54" d="M170.195 211.617L153.597 194.074L129.8 219.96L113.01 201.84L97.2608 219.644L85.1826 204.969L61.3857 229.751V247.672C61.3867 248.807 61.8355 249.896 62.6348 250.703C63.434 251.51 64.5191 251.969 65.6546 251.98L185.706 252.882C186.275 252.886 186.839 252.778 187.366 252.563C187.892 252.348 188.372 252.032 188.775 251.631C189.179 251.23 189.5 250.753 189.719 250.228C189.937 249.703 190.05 249.139 190.05 248.571V199.817L170.195 211.617Z" fill="white"/>
<path d="M170.733 211.129H170.297V252.879H170.733V211.129Z" fill="white"/>
<path d="M153.816 194.069H153.379V252.639H153.816V194.069Z" fill="#7D97F4"/>
<path d="M130.016 219.638H129.58V252.46H130.016V219.638Z" fill="#7D97F4"/>
<path d="M113.669 202.478H113.232V252.462H113.669V202.478Z" fill="#7D97F4"/>
<path d="M97.4739 219.106H97.0376V252.46H97.4739V219.106Z" fill="#7D97F4"/>
<path d="M85.6522 203.721H85.2158V252.139H85.6522V203.721Z" fill="#7D97F4"/>
<path d="M90.0616 203.123C90.0619 204.05 89.7873 204.956 89.2725 205.727C88.7578 206.497 88.026 207.098 87.1697 207.453C86.3135 207.808 85.3713 207.901 84.4622 207.72C83.5532 207.539 82.7182 207.093 82.0628 206.437C81.4074 205.782 80.9612 204.947 80.7804 204.038C80.5996 203.129 80.6926 202.187 81.0474 201.33C81.4022 200.474 82.0029 199.742 82.7737 199.228C83.5444 198.713 84.4505 198.438 85.3774 198.439C86.6197 198.439 87.8112 198.932 88.6896 199.811C89.5681 200.689 90.0616 201.881 90.0616 203.123Z" fill="#7D97F4"/>
<path d="M101.013 218.211C101.014 218.865 100.821 219.504 100.459 220.049C100.097 220.593 99.5809 221.018 98.9771 221.269C98.3732 221.52 97.7085 221.587 97.0669 221.46C96.4253 221.333 95.8357 221.019 95.3728 220.557C94.9099 220.095 94.5944 219.506 94.4663 218.865C94.3383 218.223 94.4033 217.558 94.6533 216.954C94.9033 216.35 95.3269 215.833 95.8706 215.47C96.4143 215.106 97.0536 214.912 97.7076 214.912C98.1414 214.911 98.571 214.996 98.972 215.161C99.373 215.327 99.7374 215.57 100.044 215.876C100.351 216.182 100.595 216.546 100.761 216.947C100.927 217.348 101.013 217.777 101.013 218.211Z" fill="#7D97F4"/>
<path d="M117.167 202.257C117.167 202.949 116.962 203.625 116.578 204.2C116.194 204.775 115.648 205.223 115.009 205.488C114.37 205.753 113.666 205.822 112.988 205.687C112.31 205.552 111.687 205.219 111.198 204.73C110.709 204.241 110.375 203.618 110.241 202.939C110.106 202.261 110.175 201.558 110.44 200.919C110.704 200.28 111.152 199.734 111.728 199.349C112.303 198.965 112.979 198.76 113.67 198.76C114.598 198.76 115.487 199.129 116.143 199.784C116.799 200.44 117.167 201.33 117.167 202.257Z" fill="#7D97F4"/>
<path d="M133.839 218.82C133.839 219.457 133.651 220.08 133.296 220.61C132.942 221.14 132.439 221.553 131.851 221.797C131.262 222.041 130.614 222.105 129.989 221.98C129.364 221.856 128.79 221.549 128.339 221.099C127.889 220.648 127.582 220.074 127.457 219.449C127.333 218.824 127.397 218.176 127.641 217.587C127.885 216.999 128.298 216.495 128.827 216.141C129.357 215.787 129.98 215.598 130.618 215.598C131.472 215.599 132.291 215.938 132.895 216.542C133.5 217.147 133.839 217.966 133.839 218.82Z" fill="#7D97F4"/>
<path d="M156.601 193.545C156.601 194.123 156.429 194.688 156.108 195.169C155.787 195.65 155.33 196.025 154.796 196.246C154.262 196.467 153.674 196.525 153.107 196.412C152.54 196.299 152.019 196.021 151.611 195.612C151.202 195.203 150.923 194.682 150.811 194.115C150.698 193.548 150.756 192.961 150.977 192.426C151.198 191.892 151.573 191.436 152.054 191.115C152.534 190.793 153.099 190.622 153.678 190.622C154.453 190.622 155.196 190.93 155.745 191.478C156.293 192.026 156.601 192.77 156.601 193.545Z" fill="#7D97F4"/>
<path d="M174.1 210.772C174.237 209.12 173.009 207.67 171.357 207.533C169.705 207.397 168.255 208.625 168.119 210.277C167.982 211.929 169.21 213.379 170.862 213.515C172.514 213.652 173.964 212.424 174.1 210.772Z" fill="url(#paint9_linear)"/>
<g opacity="0.48">
<path opacity="0.48" d="M92.8426 161.77H56.7865C55.2781 161.77 54.0552 162.621 54.0552 163.671C54.0552 164.72 55.2781 165.573 56.7865 165.573H92.84C94.3484 165.573 95.57 164.722 95.57 163.671C95.57 162.62 94.351 161.77 92.8426 161.77Z" fill="white"/>
<path opacity="0.48" d="M92.8426 153.355H56.7865C55.2781 153.355 54.0552 154.206 54.0552 155.257C54.0552 156.308 55.2781 157.158 56.7865 157.158H92.84C94.3484 157.158 95.57 156.307 95.57 155.257C95.57 154.207 94.351 153.355 92.8426 153.355Z" fill="white"/>
<path opacity="0.48" d="M92.8426 144.929H56.7865C55.2781 144.929 54.0552 145.78 54.0552 146.83C54.0552 147.88 55.2807 148.728 56.7865 148.728H92.84C94.3484 148.728 95.57 147.877 95.57 146.826C95.57 145.775 94.351 144.929 92.8426 144.929Z" fill="white"/>
</g>
<g opacity="0.48">
<path opacity="0.48" d="M142.958 161.77H106.905C105.398 161.77 104.175 162.621 104.175 163.671C104.175 164.72 105.398 165.573 106.905 165.573H142.958C144.467 165.573 145.69 164.722 145.69 163.671C145.69 162.62 144.467 161.77 142.958 161.77Z" fill="white"/>
<path opacity="0.48" d="M142.958 153.355H106.905C105.398 153.355 104.175 154.206 104.175 155.257C104.175 156.308 105.398 157.158 106.905 157.158H142.958C144.467 157.158 145.69 156.307 145.69 155.257C145.69 154.207 144.467 153.355 142.958 153.355Z" fill="white"/>
<path opacity="0.48" d="M142.958 144.929H106.905C105.398 144.929 104.175 145.78 104.175 146.83C104.175 147.88 105.398 148.732 106.905 148.732H142.958C144.467 148.732 145.69 147.881 145.69 146.83C145.69 145.779 144.467 144.929 142.958 144.929Z" fill="white"/>
</g>
<g opacity="0.48">
<path opacity="0.48" d="M193.076 161.77H157.022C155.514 161.77 154.291 162.621 154.291 163.671C154.291 164.72 155.514 165.573 157.022 165.573H193.076C194.584 165.573 195.806 164.722 195.806 163.671C195.806 162.62 194.584 161.77 193.076 161.77Z" fill="white"/>
<path opacity="0.48" d="M193.076 153.355H157.022C155.514 153.355 154.291 154.206 154.291 155.257C154.291 156.308 155.514 157.158 157.022 157.158H193.076C194.584 157.158 195.806 156.307 195.806 155.257C195.806 154.207 194.584 153.355 193.076 153.355Z" fill="white"/>
<path opacity="0.48" d="M193.076 144.929H157.022C155.514 144.929 154.291 145.78 154.291 146.83C154.291 147.88 155.514 148.732 157.022 148.732H193.076C194.584 148.732 195.806 147.881 195.806 146.83C195.806 145.779 194.584 144.929 193.076 144.929Z" fill="white"/>
</g>
<path opacity="0.91" d="M346.369 178.839C353.204 172.004 353.204 160.922 346.369 154.087C339.534 147.251 328.452 147.251 321.617 154.087C314.782 160.922 314.782 172.004 321.617 178.839C328.452 185.674 339.534 185.674 346.369 178.839Z" fill="white"/>
<path d="M344.392 162.762C345.307 164.991 345.482 167.455 344.89 169.79C344.298 172.125 342.971 174.209 341.106 175.733C339.24 177.257 336.934 178.141 334.527 178.255C332.121 178.368 329.742 177.706 327.74 176.364C325.739 175.023 324.222 173.074 323.412 170.805C322.603 168.536 322.544 166.067 323.245 163.762C323.946 161.457 325.368 159.438 327.304 158.003C329.239 156.568 331.584 155.793 333.993 155.792C334.183 155.792 334.372 155.792 334.56 155.807V152.958C334.371 152.95 334.183 152.946 333.993 152.946C330.972 152.948 328.032 153.921 325.606 155.722C323.181 157.523 321.399 160.057 320.524 162.948C319.649 165.84 319.727 168.936 320.746 171.78C321.766 174.623 323.673 177.064 326.186 178.741C328.699 180.417 331.685 181.241 334.702 181.091C337.719 180.94 340.608 179.823 342.942 177.905C345.276 175.987 346.931 173.369 347.663 170.438C348.395 167.507 348.164 164.418 347.006 161.628L344.392 162.762Z" fill="#7D97F4"/>
<path d="M184.859 105.908C185.774 108.136 185.948 110.6 185.357 112.935C184.765 115.271 183.438 117.354 181.573 118.878C179.707 120.402 177.401 121.286 174.994 121.4C172.588 121.514 170.208 120.851 168.207 119.51C166.206 118.169 164.689 116.22 163.879 113.951C163.07 111.682 163.011 109.212 163.712 106.907C164.412 104.602 165.835 102.584 167.77 101.149C169.705 99.7138 172.051 98.9388 174.46 98.938C174.65 98.938 174.839 98.938 175.027 98.9525V96.1035C174.838 96.0956 174.65 96.0916 174.46 96.0916C171.439 96.0933 168.498 97.0666 166.073 98.8677C163.647 100.669 161.866 103.202 160.99 106.094C160.115 108.985 160.193 112.081 161.213 114.925C162.233 117.769 164.14 120.209 166.653 121.886C169.166 123.563 172.152 124.387 175.169 124.236C178.186 124.086 181.075 122.969 183.409 121.051C185.743 119.132 187.398 116.514 188.13 113.583C188.861 110.652 188.631 107.564 187.473 104.773L184.859 105.908Z" fill="#7D97F4"/>
<path opacity="0.5" d="M348.378 191.377H319.857C319.421 191.359 318.986 191.43 318.577 191.585C318.169 191.74 317.796 191.976 317.481 192.278C317.166 192.581 316.915 192.944 316.744 193.345C316.573 193.747 316.485 194.179 316.485 194.616C316.485 195.053 316.573 195.485 316.744 195.887C316.915 196.289 317.166 196.652 317.481 196.954C317.796 197.257 318.169 197.493 318.577 197.647C318.986 197.802 319.421 197.873 319.857 197.855H348.378C349.214 197.821 350.005 197.465 350.585 196.862C351.165 196.258 351.489 195.453 351.489 194.616C351.489 193.779 351.165 192.974 350.585 192.371C350.005 191.767 349.214 191.411 348.378 191.377Z" fill="white"/>
<path opacity="0.91" d="M333.918 127.712C343.584 127.712 351.42 119.876 351.42 110.21C351.42 100.543 343.584 92.7071 333.918 92.7071C324.251 92.7071 316.415 100.543 316.415 110.21C316.415 119.876 324.251 127.712 333.918 127.712Z" fill="white"/>
<path d="M339.867 120.295C338.393 121.22 336.724 121.79 334.992 121.96C333.259 122.13 331.512 121.896 329.886 121.275C328.26 120.654 326.8 119.664 325.622 118.383C324.444 117.102 323.58 115.565 323.097 113.893C322.615 112.22 322.527 110.459 322.841 108.747C323.156 107.036 323.863 105.42 324.908 104.029C325.954 102.637 327.308 101.507 328.864 100.728C330.42 99.949 332.136 99.5421 333.877 99.5393C334.067 99.5393 334.256 99.5393 334.444 99.5539V96.7035C334.256 96.7035 334.067 96.6917 333.877 96.6917C331.698 96.6916 329.548 97.1968 327.598 98.1677C325.647 99.1386 323.948 100.549 322.634 102.287C321.321 104.026 320.428 106.045 320.027 108.187C319.625 110.328 319.726 112.534 320.321 114.63C320.916 116.726 321.989 118.656 323.456 120.267C324.923 121.878 326.743 123.128 328.775 123.916C330.806 124.705 332.992 125.012 335.162 124.813C337.332 124.615 339.426 123.915 341.28 122.77L339.867 120.295Z" fill="#7D97F4"/>
<path d="M127.722 119.447C126.247 120.372 124.579 120.942 122.847 121.112C121.114 121.282 119.367 121.047 117.741 120.426C116.115 119.805 114.655 118.815 113.477 117.534C112.299 116.253 111.435 114.716 110.952 113.044C110.47 111.372 110.382 109.61 110.696 107.899C111.011 106.187 111.718 104.572 112.763 103.18C113.809 101.788 115.163 100.658 116.719 99.8794C118.275 99.1003 119.991 98.6934 121.732 98.6907C121.922 98.6907 122.111 98.6907 122.299 98.7052V95.8549C122.111 95.8549 121.922 95.843 121.732 95.843C119.553 95.8429 117.403 96.3482 115.453 97.3191C113.502 98.29 111.803 99.7001 110.489 101.439C109.176 103.177 108.283 105.196 107.882 107.338C107.48 109.48 107.581 111.685 108.176 113.781C108.771 115.877 109.844 117.807 111.311 119.418C112.778 121.03 114.598 122.279 116.63 123.068C118.661 123.857 120.847 124.164 123.017 123.965C125.187 123.766 127.281 123.067 129.135 121.922L127.722 119.447Z" fill="#7D97F4"/>
<path opacity="0.5" d="M348.453 135.125H319.932C319.095 135.159 318.304 135.515 317.724 136.119C317.145 136.722 316.821 137.527 316.821 138.364C316.821 139.201 317.145 140.006 317.724 140.609C318.304 141.213 319.095 141.569 319.932 141.603H348.453C349.29 141.569 350.081 141.213 350.66 140.609C351.24 140.006 351.564 139.201 351.564 138.364C351.564 137.527 351.24 136.722 350.66 136.119C350.081 135.515 349.29 135.159 348.453 135.125Z" fill="white"/>
<path opacity="0.91" d="M334.055 240.504C343.721 240.504 351.557 232.668 351.557 223.002C351.557 213.336 343.721 205.499 334.055 205.499C324.388 205.499 316.552 213.336 316.552 223.002C316.552 232.668 324.388 240.504 334.055 240.504Z" fill="white"/>
<path d="M343.587 229.323C342.497 230.923 341.011 232.215 339.275 233.073C337.539 233.931 335.61 234.325 333.677 234.218C331.743 234.111 329.87 233.506 328.239 232.462C326.608 231.418 325.274 229.97 324.368 228.258C323.461 226.547 323.012 224.63 323.065 222.694C323.117 220.759 323.669 218.869 324.666 217.209C325.664 215.549 327.074 214.175 328.759 213.221C330.444 212.266 332.347 211.763 334.283 211.761C334.474 211.761 334.663 211.761 334.85 211.775V208.925C334.663 208.925 334.474 208.913 334.283 208.913C331.857 208.913 329.472 209.539 327.359 210.731C325.245 211.922 323.476 213.64 322.221 215.716C320.966 217.793 320.269 220.158 320.197 222.584C320.124 225.009 320.68 227.411 321.808 229.559C322.937 231.707 324.602 233.526 326.64 234.842C328.679 236.158 331.022 236.925 333.444 237.069C335.866 237.213 338.284 236.729 340.464 235.664C342.645 234.599 344.513 232.99 345.888 230.991L343.587 229.323Z" fill="#7D97F4"/>
<path d="M79.6788 116.462C78.5888 118.062 77.1037 119.354 75.3674 120.212C73.6311 121.07 71.7025 121.464 69.7689 121.357C67.8352 121.25 65.9621 120.645 64.3311 119.601C62.7001 118.557 61.3667 117.109 60.4601 115.397C59.5536 113.686 59.1047 111.769 59.157 109.833C59.2093 107.898 59.761 106.008 60.7586 104.348C61.7563 102.688 63.1659 101.314 64.8509 100.36C66.5359 99.4051 68.439 98.9021 70.3756 98.8996C70.566 98.8996 70.755 98.8996 70.9428 98.9141V96.0638C70.755 96.0638 70.566 96.0519 70.3756 96.0519C67.9494 96.0514 65.5641 96.6775 63.4509 97.8694C61.3376 99.0614 59.5679 100.779 58.3132 102.855C57.0585 104.932 56.3612 107.297 56.289 109.723C56.2167 112.148 56.7719 114.55 57.9007 116.698C59.0296 118.846 60.6938 120.665 62.7324 121.981C64.7709 123.297 67.1147 124.064 69.5366 124.208C71.9585 124.352 74.3767 123.868 76.5568 122.803C78.7369 121.738 80.6051 120.129 81.9805 118.13L79.6788 116.462Z" fill="#7D97F4"/>
<path opacity="0.5" d="M319.794 253.832H348.316C349.152 253.798 349.943 253.442 350.523 252.838C351.103 252.234 351.426 251.43 351.426 250.593C351.426 249.756 351.103 248.951 350.523 248.347C349.943 247.744 349.152 247.388 348.316 247.354H319.794C318.957 247.388 318.167 247.744 317.587 248.347C317.007 248.951 316.683 249.756 316.683 250.593C316.683 251.43 317.007 252.234 317.587 252.838C318.167 253.442 318.957 253.798 319.794 253.832Z" fill="white"/>
<path d="M61.6994 325.813C58.1298 326.121 51.9479 326.621 47.0722 326.837C44.1399 326.969 42.4517 326.678 41.48 326.289C41.48 326.399 41.48 326.502 41.4892 326.599C41.5027 326.848 41.6082 327.083 41.7853 327.259C41.9624 327.435 42.1984 327.539 42.4477 327.55C48.8265 327.914 55.2207 327.921 61.6002 327.57C61.7234 327.564 61.8431 327.527 61.9475 327.461C62.052 327.396 62.1378 327.304 62.1967 327.196C62.2556 327.087 62.2855 326.966 62.2836 326.842C62.2817 326.719 62.248 326.598 62.1859 326.491C62.0402 326.254 61.8776 326.027 61.6994 325.813Z" fill="url(#paint10_linear)"/>
<path d="M47.072 326.836C51.9477 326.62 58.1348 326.121 61.6991 325.813C58.1943 321.512 47.072 318.612 47.072 318.612H43.9295C41.7692 321.726 41.4559 324.693 41.4797 326.286C42.4514 326.676 44.1397 326.964 47.072 326.836Z" fill="url(#paint11_linear)"/>
<path d="M43.4009 313.485L43.6944 319.303C43.7101 319.61 43.8318 319.903 44.0388 320.13C44.2459 320.358 44.5255 320.507 44.8301 320.552C45.6213 320.67 46.4291 320.603 47.1901 320.356C47.4586 320.268 47.6984 320.11 47.8845 319.897C48.0706 319.685 48.1961 319.426 48.2477 319.148L49.2631 313.484L43.4009 313.485Z" fill="url(#paint12_linear)"/>
<path d="M2.59726 326.792C1.0517 326.577 0.349663 325.773 0.0587973 324.915L0.0521843 324.937C-0.17522 325.843 0.352307 326.788 1.40603 327.229C2.68055 327.768 4.07406 327.859 5.15555 327.816C6.31505 327.767 7.38067 327.287 7.96505 326.519L7.97431 326.507C6.81349 327.083 5.17538 327.152 2.59726 326.792Z" fill="url(#paint13_linear)"/>
<path d="M9.88454 313.456H7.29452C3.34801 313.375 0.869049 321.699 0.0585938 324.922C0.352103 325.781 1.0515 326.584 2.59705 326.8C5.17517 327.159 6.8093 327.091 7.97409 326.514C10.1067 323.709 11.163 319.6 11.676 317.201C12.2498 314.467 9.88454 313.456 9.88454 313.456Z" fill="url(#paint14_linear)"/>
<path d="M7.62767 308.05L6.18788 313.772C6.10353 314.114 6.13764 314.474 6.28463 314.794C6.43163 315.113 6.6828 315.374 6.99702 315.532C7.80087 315.944 8.93392 316.379 9.97575 316.254C10.215 316.222 10.4406 316.124 10.6274 315.971C10.8141 315.818 10.9547 315.616 11.0334 315.388L13.1488 309.368L7.62767 308.05Z" fill="url(#paint15_linear)"/>
<path d="M5.91162 309.704C7.70035 311.29 13.5226 311.501 13.5226 311.501C34.4929 261.169 43.0717 254.018 43.0717 254.018C40.0442 273.016 42.5838 315.074 42.5838 315.074C46.0449 316.601 50.5055 315.074 50.5055 315.074C50.761 288.197 54.3581 261.455 61.2141 235.466C47.0391 235.147 39.5021 230.297 37.0405 228.349C25.228 247.397 5.91162 309.704 5.91162 309.704Z" fill="#09005D"/>
<path d="M40.6419 170.467C37.9595 183.849 38.9233 207.801 39.5526 218.722C39.7297 221.793 37.5867 226.05 35.8508 228.953C35.7866 229.061 35.7451 229.18 35.7289 229.304C35.7127 229.428 35.7221 229.554 35.7566 229.674C35.791 229.794 35.8498 229.906 35.9292 230.002C36.0087 230.098 36.1071 230.178 36.2184 230.234C39.1203 231.726 48.947 236.346 60.3351 236.921C60.7052 236.936 61.0691 236.823 61.3666 236.603C61.664 236.382 61.8771 236.066 61.9705 235.708C70.4184 204.164 80.2306 184.006 80.2306 184.006C69.4004 166.709 40.6419 170.467 40.6419 170.467Z" fill="#F87000"/>
<path d="M44.5034 252.827C44.3801 252.827 44.2592 252.793 44.1543 252.728C44.0785 252.682 44.0125 252.622 43.9601 252.551C43.9077 252.479 43.8699 252.398 43.849 252.312C43.8281 252.226 43.8245 252.137 43.8383 252.049C43.8521 251.962 43.8832 251.878 43.9296 251.803C44.042 251.616 46.7549 247.232 52.2444 244.584C52.3238 244.545 52.41 244.523 52.4981 244.518C52.5861 244.513 52.6743 244.525 52.7576 244.554C52.8409 244.583 52.9177 244.629 52.9836 244.687C53.0494 244.746 53.103 244.817 53.1414 244.897C53.1798 244.976 53.2021 245.062 53.2072 245.15C53.2122 245.238 53.1999 245.327 53.1709 245.41C53.1418 245.493 53.0967 245.57 53.038 245.636C52.9793 245.702 52.9082 245.755 52.8287 245.794C47.7108 248.262 45.1023 252.458 45.0772 252.501C45.0177 252.6 44.9337 252.682 44.8332 252.739C44.7326 252.797 44.619 252.827 44.5034 252.827Z" fill="url(#paint16_linear)"/>
<path d="M23.8145 208.873C24.6764 215.107 27.2214 221.907 32.3152 229.129L34.2507 227.55C34.2507 227.55 32.0164 218.482 33.2869 208.192C30.1444 207.578 26.4347 208.21 23.8145 208.873Z" fill="url(#paint17_linear)"/>
<path d="M43.6385 186.979L40.6414 170.467C40.6414 170.467 20.6204 185.771 23.8145 208.872C26.4348 208.211 30.1444 207.578 33.2869 208.192C34.2018 200.778 36.9357 192.73 43.6385 186.979Z" fill="#FF9034"/>
<path d="M80.2332 184.009L72.5059 200.652C73.7552 210.7 79.1531 215.045 84.9727 216.711C85.2586 212.983 86.1346 209.324 87.5679 205.87C80.1314 198.194 80.2332 184.009 80.2332 184.009Z" fill="#F87000"/>
<path d="M87.5678 205.874C86.1345 209.327 85.2585 212.987 84.9727 216.715C100.501 222.739 104.609 211.055 104.609 211.055L101.739 210.55C95.2582 211.23 90.7315 209.147 87.5678 205.874Z" fill="url(#paint18_linear)"/>
<path d="M73.1119 163.46L69.3811 177.176C69.2823 177.54 69.1077 177.878 68.8688 178.169C68.6298 178.46 68.332 178.697 67.9948 178.865C67.6576 179.033 67.2888 179.127 66.9125 179.142C66.5362 179.157 66.161 179.092 65.8116 178.952C63.9765 178.23 62.1821 177.408 60.4362 176.491C59.9957 176.253 59.6101 175.924 59.304 175.528C58.9979 175.131 58.7781 174.675 58.6587 174.188C58.5393 173.701 58.523 173.195 58.6107 172.702C58.6985 172.209 58.8884 171.739 59.1683 171.323L66.9248 159.758L73.1119 163.46Z" fill="url(#paint19_linear)"/>
<path d="M111.725 201.875L16.1257 236.668C15.1765 237.013 14.3089 237.551 13.5776 238.247C12.8463 238.944 12.2671 239.784 11.8763 240.716C11.4855 241.647 11.2917 242.649 11.307 243.659C11.3223 244.669 11.5464 245.664 11.9652 246.583L12.2561 247.222C12.6276 248.039 13.157 248.774 13.8137 249.385C14.4705 249.996 15.2416 250.472 16.0828 250.784C16.924 251.096 17.8186 251.239 18.7152 251.204C19.6117 251.169 20.4925 250.957 21.3068 250.58L114.133 207.639L111.725 201.875Z" fill="url(#paint20_linear)"/>
<path opacity="0.23" d="M155.668 227.286C181.732 227.286 202.861 206.538 202.861 180.945C202.861 155.351 181.732 134.603 155.668 134.603C129.604 134.603 108.475 155.351 108.475 180.945C108.475 206.538 129.604 227.286 155.668 227.286Z" fill="#E9EFFE"/>
<path d="M155.667 129.379C126.666 129.379 103.154 152.465 103.154 180.938C103.154 209.411 126.666 232.498 155.667 232.498C184.669 232.498 208.18 209.411 208.18 180.938C208.18 152.465 184.669 129.379 155.667 129.379ZM155.667 224.936C130.925 224.936 110.868 205.237 110.868 180.945C110.868 156.652 130.925 136.954 155.667 136.954C180.409 136.954 200.466 156.652 200.466 180.945C200.466 205.237 180.409 224.936 155.667 224.936Z" fill="url(#paint21_linear)"/>
<path d="M107.147 187.347C107.057 187.348 106.971 187.315 106.904 187.256C106.837 187.197 106.793 187.115 106.782 187.026C106.626 185.803 106.518 184.559 106.456 183.325C106.451 183.227 106.485 183.132 106.55 183.06C106.616 182.988 106.707 182.945 106.805 182.94C106.853 182.936 106.902 182.943 106.948 182.959C106.994 182.975 107.036 183 107.072 183.032C107.108 183.065 107.137 183.104 107.157 183.148C107.178 183.192 107.189 183.24 107.191 183.289C107.25 184.501 107.358 185.727 107.512 186.93C107.518 186.978 107.515 187.026 107.502 187.073C107.49 187.12 107.468 187.163 107.439 187.202C107.409 187.24 107.373 187.272 107.331 187.296C107.289 187.32 107.242 187.336 107.195 187.342L107.147 187.347ZM107.508 172.929C107.486 172.931 107.464 172.931 107.442 172.929C107.394 172.921 107.349 172.903 107.308 172.877C107.267 172.851 107.232 172.817 107.205 172.777C107.177 172.738 107.158 172.693 107.148 172.646C107.138 172.599 107.137 172.55 107.146 172.502C107.742 169.178 108.692 165.926 109.979 162.804C117.553 144.435 135.485 132.566 155.666 132.566C165.02 132.55 174.189 135.17 182.123 140.125C182.206 140.178 182.264 140.261 182.285 140.357C182.307 140.453 182.289 140.553 182.237 140.636C182.184 140.718 182.101 140.777 182.005 140.798C181.909 140.82 181.809 140.802 181.726 140.749C173.91 135.866 164.877 133.285 155.661 133.301C135.778 133.301 118.115 144.993 110.653 163.087C109.386 166.161 108.45 169.362 107.863 172.634C107.846 172.717 107.802 172.791 107.737 172.844C107.673 172.898 107.592 172.928 107.508 172.929Z" fill="#BDD0FB"/>
<path d="M81.2745 153.041C81.3089 153.277 78.1637 168.692 78.1637 168.692L69.3999 166.708L70.2103 151.654C70.2103 151.654 80.706 149.098 81.2745 153.041Z" fill="url(#paint22_linear)"/>
<path d="M72.1818 155.008L71.1348 162.898C71.1203 162.999 71.1203 163.101 71.1348 163.201C71.2234 163.82 71.6834 165.926 73.8093 165.316C75.7382 164.77 77.511 164.301 78.7286 164.674C78.9931 164.754 79.218 164.931 79.3593 165.169C79.5007 165.406 79.5482 165.688 79.4928 165.959C79.2072 167.36 78.5039 170.504 77.4753 173.143C77.3744 173.401 77.1802 173.613 76.931 173.735C76.6818 173.858 76.3958 173.882 76.1295 173.804C74.4677 173.319 70.9907 172.199 68.4047 170.643C68.2327 170.54 68.0916 170.393 67.9962 170.217C67.9008 170.041 67.8547 169.842 67.8627 169.642C67.946 167.65 68.18 161.593 67.983 159.896C67.7993 158.31 65.8439 157.348 64.9939 157.006C64.8565 156.951 64.7318 156.868 64.6273 156.764C64.5227 156.659 64.4406 156.534 64.3857 156.397C63.9891 155.41 63.4497 153.128 66.3252 152.194C66.4676 152.148 66.5993 152.074 66.7124 151.976C66.8255 151.878 66.9177 151.758 66.9834 151.624C67.0492 151.489 67.0872 151.343 67.0952 151.194C67.1032 151.044 67.0809 150.895 67.0298 150.754C66.6041 149.564 66.4243 147.76 68.6493 146.763C70.91 145.75 72.5983 146.954 73.5092 147.934C73.6884 148.123 73.9284 148.244 74.1874 148.275C74.4463 148.305 74.7079 148.244 74.9264 148.102C75.1908 147.937 75.5227 147.883 75.9285 148.135C76.0594 148.213 76.2053 148.264 76.3567 148.282C76.5081 148.301 76.6617 148.288 76.8077 148.243C76.9538 148.199 77.0889 148.125 77.2046 148.026C77.3202 147.926 77.4138 147.804 77.4793 147.666C78.02 146.554 79.1239 145.364 81.337 145.743C85.2648 146.415 85.709 150.767 84.6726 153.317C83.6361 155.868 79.4201 154.896 77.3061 153.611C75.6972 152.633 73.6044 153.657 72.7041 154.205C72.5621 154.291 72.4414 154.408 72.351 154.547C72.2606 154.686 72.2028 154.844 72.1818 155.008Z" fill="url(#paint23_linear)"/>
<path d="M67.6274 162.776C67.6274 162.776 69.243 158.255 67.5838 157.147C65.9246 156.039 63.4681 156.618 64.0141 159.89C64.6844 163.965 67.6274 162.776 67.6274 162.776Z" fill="url(#paint24_linear)"/>
<path d="M33.4525 227.276L42.4918 226.539L46.4052 230.147C46.4052 230.147 45.4798 231.429 42.5843 230.692C39.6889 229.956 35.7239 229.776 35.7239 229.776C35.7239 229.776 31.7271 231.578 31.6782 228.207L33.4525 227.276Z" fill="url(#paint25_linear)"/>
<path d="M103.454 213.19C104.237 213.801 106.914 212.529 108.552 211.645C108.94 211.438 109.244 211.102 109.41 210.695C109.577 210.289 109.596 209.836 109.464 209.417C109.068 208.174 108.407 206.569 107.603 206.367C106.262 206.031 100.236 210.674 103.454 213.19Z" fill="url(#paint26_linear)"/>
<path d="M18.0114 249.252C17.9705 249.252 17.9299 249.245 17.8911 249.232C14.1482 247.938 13.2782 245.725 13.2081 244.097C13.105 241.718 14.599 239.51 16.9259 238.603L28.4058 234.133C28.4968 234.098 28.598 234.1 28.6872 234.14C28.7763 234.179 28.8461 234.253 28.8811 234.343C28.9162 234.434 28.9137 234.536 28.8741 234.625C28.8346 234.714 28.7613 234.784 28.6703 234.819L17.193 239.289C15.1596 240.082 13.8533 242.002 13.9432 244.067C14.0318 246.103 15.4412 247.608 18.1317 248.538C18.2141 248.567 18.2838 248.623 18.3284 248.698C18.373 248.773 18.3895 248.861 18.3751 248.947C18.3606 249.033 18.3161 249.111 18.2495 249.167C18.1829 249.223 18.0985 249.254 18.0114 249.254V249.252Z" fill="#BDD0FB"/>
<path d="M32.0747 233.458C31.9891 233.458 31.9063 233.428 31.8406 233.373C31.7749 233.318 31.7304 233.242 31.7147 233.158C31.699 233.074 31.7132 232.987 31.7548 232.912C31.7964 232.837 31.8628 232.779 31.9425 232.748L33.4312 232.168C33.5222 232.133 33.6234 232.135 33.7125 232.175C33.8017 232.214 33.8715 232.288 33.9065 232.379C33.9416 232.47 33.9391 232.571 33.8995 232.66C33.86 232.749 33.7866 232.819 33.6956 232.854L32.2069 233.433C32.1648 233.45 32.12 233.458 32.0747 233.458Z" fill="#BDD0FB"/>
<path d="M110.706 21.3109C110.706 21.3109 95.1058 40.1394 95.6677 42.0101C96.2295 43.8808 126.249 68.2289 128.728 66.1348C131.207 64.0407 145.326 48.8411 145.326 48.8411C131.856 32.8722 112.411 19.6795 110.706 21.3109Z" fill="url(#paint27_linear)"/>
<path d="M127.733 85.4028C121.293 85.4028 94.3246 65.8616 84.0536 55.4228C78.6874 49.9693 78.5552 47.981 78.9227 46.9617C81.1451 40.7877 107.126 1.19777 116.843 0.0290851L117.086 0L117.283 0.144102C122.245 3.74535 165.768 35.4877 166.09 41.0416C166.315 44.9019 153.429 60.079 149.475 64.6387C141.479 73.8587 131.475 84.2605 128.408 85.3089C128.19 85.3767 127.961 85.4084 127.733 85.4028ZM116.76 1.29957C107.957 2.98253 82.3984 40.986 80.0954 47.3821C79.9632 47.7668 79.8971 49.422 84.942 54.5502C96.1543 65.9462 122.538 84.1852 127.578 84.1878C127.723 84.1912 127.867 84.1707 128.005 84.127C130.369 83.3192 139.195 74.5884 148.534 63.8204C158.264 52.6015 164.971 43.2626 164.846 41.1116C164.628 37.3676 136.051 15.3146 116.76 1.30221V1.29957Z" fill="#91B3FA"/>
<path d="M128.285 66.8933C127.98 66.884 127.677 66.8319 127.386 66.7387C121.742 65.0636 95.7893 44.601 95.0714 42.1962C94.4976 40.2898 104.326 28.0503 110.227 20.9192C110.278 20.8521 110.342 20.796 110.415 20.7542C110.488 20.7125 110.568 20.6859 110.652 20.6761C110.735 20.6664 110.82 20.6737 110.901 20.6975C110.981 20.7214 111.056 20.7613 111.121 20.8149C111.186 20.8685 111.239 20.9347 111.278 21.0095C111.316 21.0842 111.339 21.166 111.345 21.2499C111.351 21.3337 111.34 21.418 111.313 21.4975C111.285 21.577 111.242 21.6501 111.186 21.7125C103.942 30.4499 96.4344 40.3202 96.2784 41.8578C97.6005 44.2652 125.599 66.5126 128.37 65.6321C130.749 63.612 144.347 49.0484 144.484 48.9016C144.597 48.7808 144.753 48.7098 144.918 48.7041C145.083 48.6984 145.244 48.7585 145.365 48.8712C145.485 48.984 145.557 49.14 145.562 49.3052C145.568 49.4703 145.508 49.6309 145.395 49.7517C144.835 50.3532 131.614 64.5137 129.13 66.6104C128.892 66.8035 128.592 66.904 128.285 66.8933Z" fill="#91B3FA"/>
<path d="M141.388 50.5116C134.156 50.5116 120 47.5939 117.82 46.2189C114.977 44.4276 108.799 24.2122 110.133 21.0684C110.321 20.6255 110.819 20.1839 112.127 20.5951C115.5 21.6527 124.351 28.2008 131.627 34.2187C137.167 38.801 146.392 46.8099 145.936 48.9714C145.834 49.4487 145.481 49.8202 144.886 50.0714C144.158 50.3794 142.929 50.5116 141.388 50.5116ZM111.245 21.6686C110.377 24.6207 116.236 43.7467 118.489 45.1653C120.741 46.5838 140.655 50.509 144.401 48.9238C144.645 48.8207 144.713 48.7308 144.717 48.7136C144.653 47.1087 133.66 36.8946 122.065 28.2867C114.956 23.0025 111.955 21.654 111.24 21.6686H111.245Z" fill="#91B3FA"/>
<path d="M106.689 34.3323C106.572 34.3326 106.457 34.2996 106.358 34.2373C106.258 34.175 106.178 34.0859 106.127 33.9801C106.076 33.8744 106.056 33.7564 106.069 33.6398C106.083 33.5231 106.128 33.4126 106.202 33.3209L107.685 31.462C107.788 31.3326 107.938 31.2494 108.102 31.2307C108.267 31.212 108.432 31.2593 108.561 31.3622C108.69 31.4651 108.774 31.6152 108.792 31.7795C108.811 31.9437 108.764 32.1087 108.661 32.2381L107.181 34.0983C107.122 34.172 107.048 34.2314 106.962 34.2719C106.877 34.3125 106.784 34.3331 106.689 34.3323Z" fill="#BDD0FB"/>
<path d="M135.593 44.4519C135.5 44.4519 135.407 44.4308 135.323 44.39C135.239 44.3492 135.165 44.2899 135.107 44.2165C131.537 39.7573 116.878 29.4533 116.73 29.3502C116.663 29.3032 116.606 29.2435 116.562 29.1745C116.518 29.1055 116.488 29.0284 116.474 28.9478C116.46 28.8673 116.462 28.7847 116.48 28.7048C116.497 28.6249 116.531 28.5493 116.578 28.4823C116.625 28.4152 116.684 28.3581 116.753 28.3142C116.822 28.2703 116.899 28.2403 116.98 28.2262C117.061 28.212 117.143 28.2138 117.223 28.2316C117.303 28.2493 117.379 28.2826 117.446 28.3296C118.055 28.7566 132.406 38.8411 136.086 43.4392C136.138 43.503 136.176 43.5763 136.199 43.6549C136.221 43.7335 136.228 43.8158 136.219 43.8971C136.21 43.9784 136.185 44.0571 136.146 44.1288C136.106 44.2004 136.053 44.2634 135.989 44.3144C135.877 44.4051 135.737 44.4538 135.593 44.4519Z" fill="#BDD0FB"/>
<path d="M325.91 293.996H321.505C321.376 293.997 321.249 293.971 321.13 293.922C321.011 293.873 320.903 293.801 320.812 293.71C320.721 293.62 320.649 293.512 320.599 293.393C320.55 293.274 320.525 293.147 320.525 293.018V279.839C320.525 279.579 320.628 279.33 320.812 279.147C320.996 278.963 321.245 278.86 321.505 278.86H325.91C326.038 278.86 326.166 278.885 326.285 278.934C326.403 278.983 326.511 279.056 326.602 279.147C326.693 279.238 326.765 279.346 326.814 279.464C326.863 279.583 326.888 279.711 326.888 279.839V293.018C326.888 293.278 326.785 293.526 326.602 293.71C326.418 293.893 326.169 293.996 325.91 293.996ZM322.483 292.04H324.93V280.818H322.483V292.04Z" fill="#F16E03"/>
<path d="M334.592 293.995H328.571C328.312 293.995 328.063 293.892 327.879 293.709C327.696 293.525 327.593 293.276 327.593 293.017V271.263C327.593 271.134 327.618 271.007 327.667 270.888C327.716 270.769 327.788 270.661 327.879 270.57C327.97 270.479 328.078 270.407 328.196 270.358C328.315 270.308 328.443 270.283 328.571 270.283H334.592C334.852 270.283 335.101 270.386 335.284 270.57C335.468 270.754 335.571 271.003 335.571 271.263V293.017C335.571 293.146 335.546 293.273 335.497 293.392C335.447 293.51 335.375 293.618 335.284 293.709C335.193 293.8 335.085 293.872 334.966 293.921C334.848 293.97 334.72 293.995 334.592 293.995ZM329.551 292.039H333.613V272.241H329.551V292.039Z" fill="#F16E03"/>
<path d="M345.94 293.995H337.589C337.329 293.995 337.08 293.892 336.897 293.709C336.713 293.525 336.61 293.276 336.61 293.017V266.655C336.61 266.527 336.636 266.4 336.685 266.281C336.734 266.162 336.806 266.054 336.897 265.964C336.988 265.873 337.096 265.801 337.214 265.751C337.333 265.702 337.46 265.677 337.589 265.677H345.947C346.075 265.677 346.202 265.702 346.321 265.751C346.44 265.801 346.548 265.873 346.638 265.964C346.729 266.054 346.801 266.162 346.85 266.281C346.9 266.4 346.925 266.527 346.925 266.655V293.017C346.925 293.146 346.899 293.274 346.85 293.393C346.8 293.512 346.728 293.62 346.636 293.711C346.545 293.802 346.436 293.874 346.316 293.923C346.197 293.972 346.069 293.996 345.94 293.995ZM338.562 292.039H344.96V267.639H338.562V292.039Z" fill="#F16E03"/>
<path d="M361.069 293.995H351.061C350.932 293.996 350.805 293.97 350.686 293.921C350.567 293.872 350.459 293.8 350.368 293.709C350.277 293.618 350.205 293.51 350.156 293.392C350.106 293.273 350.081 293.146 350.081 293.017V261.129C350.081 261.001 350.106 260.873 350.156 260.755C350.205 260.636 350.277 260.528 350.368 260.437C350.459 260.346 350.567 260.274 350.686 260.225C350.805 260.176 350.932 260.151 351.061 260.151H361.069C361.328 260.151 361.577 260.254 361.76 260.438C361.944 260.621 362.047 260.87 362.047 261.129V293.017C362.047 293.276 361.944 293.525 361.76 293.709C361.577 293.892 361.328 293.995 361.069 293.995ZM352.039 292.039H360.089V262.109H352.039V292.039Z" fill="#F16E03"/>
<path d="M191.959 58.5003C214.343 58.1698 325.074 56.2317 347.8 55.8324C348.333 55.8229 348.862 55.9197 349.357 56.117C349.852 56.3144 350.302 56.6083 350.682 56.9818C351.062 57.3552 351.364 57.8006 351.57 58.292C351.776 58.7833 351.881 59.3108 351.881 59.8435V70.211C351.881 71.2748 351.459 72.295 350.706 73.0472C349.954 73.7995 348.934 74.222 347.87 74.222H192.019C190.956 74.222 189.935 73.7995 189.183 73.0472C188.431 72.295 188.008 71.2748 188.008 70.211V62.5101C188.008 61.4567 188.422 60.4456 189.161 59.6952C189.9 58.9448 190.905 58.5156 191.959 58.5003Z" fill="#F16E03"/>
<path d="M220.182 66.4855C220.182 67.0216 220.289 67.5524 220.496 68.0468C220.703 68.5412 221.007 68.9893 221.389 69.3651C221.772 69.7408 222.225 70.0366 222.723 70.2352C223.221 70.4338 223.754 70.5312 224.29 70.5217L314.585 68.9551C315.191 68.9448 315.787 68.7981 316.329 68.526C316.87 68.2538 317.343 67.8633 317.713 67.3832C318.083 66.9032 318.34 66.3459 318.466 65.7529C318.591 65.1599 318.581 64.5464 318.436 63.9578L318.025 62.2814C317.804 61.3798 317.279 60.5821 316.538 60.0224C315.797 59.4628 314.886 59.1755 313.959 59.209L224.068 62.4506C223.024 62.4896 222.036 62.9319 221.311 63.6843C220.586 64.4368 220.182 65.4409 220.182 66.4855Z" fill="#FF9B49"/>
<path d="M200.014 67.0462L186.133 81.1801C185.995 81.3204 185.888 81.4876 185.818 81.6713C185.749 81.8549 185.717 82.0509 185.727 82.2472C185.736 82.4434 185.786 82.6355 185.873 82.8116C185.96 82.9877 186.083 83.1438 186.233 83.2703L186.338 83.3589C186.471 83.4716 186.626 83.5566 186.793 83.6092C186.96 83.6617 187.135 83.6806 187.309 83.6649C187.483 83.6492 187.652 83.5991 187.807 83.5175C187.962 83.4359 188.099 83.3245 188.21 83.1896L200.923 67.854L200.014 67.0462Z" fill="url(#paint28_linear)"/>
<path opacity="0.23" d="M214.275 55.7229C216.422 60.2178 214.448 65.6382 209.867 67.8262C205.286 70.0142 199.833 68.1382 197.687 63.6393C195.542 59.1404 197.513 53.724 202.094 51.5373C206.675 49.3506 212.127 51.2253 214.275 55.7229Z" fill="#E9EFFE"/>
<path d="M201.656 50.6188C196.558 53.0514 194.364 59.0799 196.751 64.0865C199.139 69.0931 205.212 71.1766 210.306 68.7441C215.4 66.3115 217.599 60.283 215.21 55.2777C212.821 50.2724 206.753 48.1863 201.656 50.6188ZM209.67 67.4088C205.322 69.4844 200.145 67.705 198.108 63.4347C196.07 59.1645 197.942 54.0218 202.291 51.9462C206.639 49.8705 211.816 51.65 213.855 55.9202C215.893 60.1904 214.019 65.3385 209.67 67.4128V67.4088Z" fill="url(#paint29_linear)"/>
<path d="M188.634 79.4675C188.57 79.4671 188.508 79.4426 188.461 79.3988C188.437 79.3761 188.417 79.3489 188.403 79.3187C188.39 79.2885 188.382 79.2559 188.381 79.2228C188.38 79.1896 188.385 79.1566 188.397 79.1255C188.409 79.0945 188.426 79.066 188.449 79.0418L188.662 78.8144C188.685 78.7902 188.712 78.7707 188.742 78.757C188.772 78.7434 188.805 78.7358 188.838 78.7347C188.872 78.7337 188.905 78.7392 188.936 78.751C188.967 78.7627 188.995 78.7804 189.02 78.8032C189.044 78.8259 189.063 78.8532 189.077 78.8835C189.091 78.9138 189.098 78.9465 189.099 78.9797C189.1 79.0129 189.095 79.046 189.083 79.0771C189.071 79.1081 189.054 79.1366 189.031 79.1608L188.818 79.3869C188.794 79.4122 188.766 79.4324 188.734 79.4462C188.703 79.4601 188.669 79.4674 188.634 79.4675Z" fill="white"/>
<defs>
<linearGradient id="paint0_linear" x1="17.0923" y1="191.11" x2="383.884" y2="191.11" gradientUnits="userSpaceOnUse">
<stop stop-color="#DAE3FE"/>
<stop offset="1" stop-color="#E9EFFD"/>
</linearGradient>
<linearGradient id="paint1_linear" x1="278.095" y1="36.615" x2="114.05" y2="372.101" gradientUnits="userSpaceOnUse">
<stop stop-color="#09005D"/>
<stop offset="1" stop-color="#1A0F91"/>
</linearGradient>
<linearGradient id="paint2_linear" x1="459.128" y1="-126.38" x2="391.378" y2="-32.7787" gradientUnits="userSpaceOnUse">
<stop stop-color="#4042E2"/>
<stop offset="1" stop-color="#4F52FF"/>
</linearGradient>
<linearGradient id="paint3_linear" x1="35480.8" y1="-22820.5" x2="22787.8" y2="-19925.8" gradientUnits="userSpaceOnUse">
<stop stop-color="#4042E2"/>
<stop offset="1" stop-color="#4F52FF"/>
</linearGradient>
<linearGradient id="paint4_linear" x1="35030.8" y1="-57358.9" x2="21808.1" y2="-56044.5" gradientUnits="userSpaceOnUse">
<stop stop-color="#4042E2"/>
<stop offset="1" stop-color="#4F52FF"/>
</linearGradient>
<linearGradient id="paint5_linear" x1="37233.4" y1="-8299.79" x2="25832.4" y2="-3582.17" gradientUnits="userSpaceOnUse">
<stop stop-color="#4042E2"/>
<stop offset="1" stop-color="#4F52FF"/>
</linearGradient>
<linearGradient id="paint6_linear" x1="36659.5" y1="-35722.8" x2="23479.9" y2="-34210.4" gradientUnits="userSpaceOnUse">
<stop stop-color="#4042E2"/>
<stop offset="1" stop-color="#4F52FF"/>
</linearGradient>
<linearGradient id="paint7_linear" x1="37640.6" y1="-22533.1" x2="24539.5" y2="-20715" gradientUnits="userSpaceOnUse">
<stop stop-color="#4042E2"/>
<stop offset="1" stop-color="#4F52FF"/>
</linearGradient>
<linearGradient id="paint8_linear" x1="38647.6" y1="-11824.1" x2="25712" y2="-9499.94" gradientUnits="userSpaceOnUse">
<stop stop-color="#4042E2"/>
<stop offset="1" stop-color="#4F52FF"/>
</linearGradient>
<linearGradient id="paint9_linear" x1="173.615" y1="202.94" x2="161.022" y2="241.013" gradientUnits="userSpaceOnUse">
<stop stop-color="#CB236D"/>
<stop offset="1" stop-color="#4C246D"/>
</linearGradient>
<linearGradient id="paint10_linear" x1="41.48" y1="326.819" x2="62.2877" y2="326.819" gradientUnits="userSpaceOnUse">
<stop stop-color="#4F52FF"/>
<stop offset="1" stop-color="#4042E2"/>
</linearGradient>
<linearGradient id="paint11_linear" x1="36124.9" y1="24112.2" x2="39217.4" y2="24112.2" gradientUnits="userSpaceOnUse">
<stop stop-color="#09005D"/>
<stop offset="1" stop-color="#1A0F91"/>
</linearGradient>
<linearGradient id="paint12_linear" x1="43.4022" y1="317.047" x2="49.2631" y2="317.047" gradientUnits="userSpaceOnUse">
<stop stop-color="#FF928E"/>
<stop offset="1" stop-color="#FEB3B1"/>
</linearGradient>
<linearGradient id="paint13_linear" x1="11787.6" y1="8793.12" x2="12268.5" y2="8793.12" gradientUnits="userSpaceOnUse">
<stop stop-color="#4F52FF"/>
<stop offset="1" stop-color="#4042E2"/>
</linearGradient>
<linearGradient id="paint14_linear" x1="17159.9" y1="39155" x2="18196.3" y2="39155" gradientUnits="userSpaceOnUse">
<stop stop-color="#09005D"/>
<stop offset="1" stop-color="#1A0F91"/>
</linearGradient>
<linearGradient id="paint15_linear" x1="10688.2" y1="23358" x2="11059.4" y2="23358" gradientUnits="userSpaceOnUse">
<stop stop-color="#FF928E"/>
<stop offset="1" stop-color="#FEB3B1"/>
</linearGradient>
<linearGradient id="paint16_linear" x1="5511.89" y1="16778.1" x2="6289.66" y2="19181.5" gradientUnits="userSpaceOnUse">
<stop stop-color="#4F52FF"/>
<stop offset="1" stop-color="#4042E2"/>
</linearGradient>
<linearGradient id="paint17_linear" x1="7081.11" y1="48091.5" x2="4446.16" y2="45763.9" gradientUnits="userSpaceOnUse">
<stop stop-color="#FF928E"/>
<stop offset="1" stop-color="#FEB3B1"/>
</linearGradient>
<linearGradient id="paint18_linear" x1="23193" y1="25370.8" x2="20079.4" y2="26790" gradientUnits="userSpaceOnUse">
<stop stop-color="#FF928E"/>
<stop offset="1" stop-color="#FEB3B1"/>
</linearGradient>
<linearGradient id="paint19_linear" x1="12760.9" y1="32520" x2="10877.4" y2="35126.5" gradientUnits="userSpaceOnUse">
<stop stop-color="#FF928E"/>
<stop offset="1" stop-color="#FEB3B1"/>
</linearGradient>
<linearGradient id="paint20_linear" x1="11.3068" y1="226.539" x2="114.134" y2="226.539" gradientUnits="userSpaceOnUse">
<stop stop-color="#020039"/>
<stop offset="1" stop-color="#090056"/>
</linearGradient>
<linearGradient id="paint21_linear" x1="237300" y1="186742" x2="320734" y2="186742" gradientUnits="userSpaceOnUse">
<stop stop-color="#020039"/>
<stop offset="1" stop-color="#090056"/>
</linearGradient>
<linearGradient id="paint22_linear" x1="10112.5" y1="30061.7" x2="11549" y2="29647.7" gradientUnits="userSpaceOnUse">
<stop stop-color="#FF928E"/>
<stop offset="1" stop-color="#FEB3B1"/>
</linearGradient>
<linearGradient id="paint23_linear" x1="61.3278" y1="157.578" x2="123.955" y2="165.496" gradientUnits="userSpaceOnUse">
<stop stop-color="#2B3582"/>
<stop offset="1" stop-color="#150E42"/>
</linearGradient>
<linearGradient id="paint24_linear" x1="9797.92" y1="20884.3" x2="10378.1" y2="20328.2" gradientUnits="userSpaceOnUse">
<stop stop-color="#FF928E"/>
<stop offset="1" stop-color="#FEB3B1"/>
</linearGradient>
<linearGradient id="paint25_linear" x1="10021.5" y1="10123.1" x2="9844.16" y2="9054.39" gradientUnits="userSpaceOnUse">
<stop stop-color="#FF928E"/>
<stop offset="1" stop-color="#FEB3B1"/>
</linearGradient>
<linearGradient id="paint26_linear" x1="8403.24" y1="14319.8" x2="7163.28" y2="14682.9" gradientUnits="userSpaceOnUse">
<stop stop-color="#FF928E"/>
<stop offset="1" stop-color="#FEB3B1"/>
</linearGradient>
<linearGradient id="paint27_linear" x1="33984" y1="16837.4" x2="47013.1" y2="27197.5" gradientUnits="userSpaceOnUse">
<stop stop-color="#4F52FF"/>
<stop offset="1" stop-color="#4042E2"/>
</linearGradient>
<linearGradient id="paint28_linear" x1="26664" y1="16874.3" x2="28411.1" y2="16874.3" gradientUnits="userSpaceOnUse">
<stop stop-color="#4F52FF"/>
<stop offset="1" stop-color="#4042E2"/>
</linearGradient>
<linearGradient id="paint29_linear" x1="37270.8" y1="18039" x2="40415.4" y2="18039" gradientUnits="userSpaceOnUse">
<stop stop-color="#4F52FF"/>
<stop offset="1" stop-color="#4042E2"/>
</linearGradient>
</defs>
</svg>
