<svg width="257" height="292" viewBox="0 0 257 292" fill="none" xmlns="http://www.w3.org/2000/svg">
<path d="M243.305 0.401029C242.416 0.246161 241.515 0.168656 240.612 0.169385C239.704 0.168233 238.798 0.247518 237.904 0.406299C234.237 1.04517 230.912 2.95929 228.516 5.81144C226.12 8.66358 224.806 12.2707 224.806 15.9975C224.806 19.7242 226.12 23.3314 228.516 26.1835C230.912 29.0357 234.237 30.9498 237.904 31.5886V231.534C237.887 246.058 232.117 259.983 221.858 270.253C211.599 280.523 197.69 286.301 183.182 286.317H60.9994C46.4912 286.301 32.5819 280.523 22.323 270.253C12.0642 259.983 6.29338 246.058 6.27668 231.534V29.1248C6.27669 28.4112 5.99462 27.7267 5.4921 27.2206C4.98958 26.7146 4.30747 26.4282 3.59472 26.424C3.24045 26.424 2.88966 26.4939 2.56235 26.6296C2.23505 26.7654 1.93764 26.9643 1.68714 27.2151C1.43663 27.4659 1.2379 27.7636 1.10233 28.0913C0.966755 28.4189 0.896973 28.7701 0.896973 29.1248V231.534C0.898367 247.497 7.23322 262.806 18.5082 274.093C29.7833 285.381 45.0751 291.723 61.0204 291.724H183.203C199.148 291.723 214.44 285.381 225.715 274.093C236.99 262.806 243.325 247.497 243.326 231.534V31.5939C247 30.9613 250.332 29.0492 252.735 26.1953C255.137 23.3415 256.454 19.7295 256.454 15.9975C256.454 12.2654 255.137 8.65347 252.735 5.79961C250.332 2.94575 247 1.03364 243.326 0.401029H243.305ZM240.612 26.424C237.891 26.3628 235.301 25.2374 233.398 23.2887C231.495 21.34 230.429 18.7229 230.429 15.9975C230.429 13.272 231.495 10.6549 233.398 8.70621C235.301 6.75751 237.891 5.63212 240.612 5.57089C242 5.53968 243.38 5.78629 244.67 6.29625C245.961 6.80621 247.137 7.56924 248.13 8.54053C249.122 9.51182 249.91 10.6718 250.449 11.9523C250.987 13.2329 251.264 14.6082 251.264 15.9975C251.264 17.3868 250.987 18.7621 250.449 20.0426C249.91 21.3232 249.122 22.4831 248.13 23.4544C247.137 24.4257 245.961 25.1887 244.67 25.6987C243.38 26.2086 242 26.4553 240.612 26.424Z" fill="#666666"/>
</svg>
