<svg width="258" height="292" viewBox="0 0 258 292" fill="none" xmlns="http://www.w3.org/2000/svg">
<path d="M243.333 260.254V60.4618C243.333 52.5577 241.778 44.731 238.757 37.4287C235.735 30.1264 231.306 23.4914 225.723 17.9026C220.14 12.3138 213.512 7.88075 206.218 4.85648C198.923 1.8322 191.105 0.275981 183.21 0.276673H61.0278C45.0834 0.278068 29.7924 6.61926 18.5175 17.9057C7.24262 29.1921 0.907086 44.4996 0.904297 60.4618V262.87C0.904296 263.226 0.974264 263.577 1.11017 263.905C1.24607 264.233 1.44525 264.531 1.69632 264.782C1.94739 265.033 2.24543 265.232 2.57334 265.367C2.90125 265.503 3.25259 265.572 3.60731 265.571C4.32188 265.57 5.0067 265.285 5.51149 264.778C6.01628 264.272 6.29979 263.586 6.29979 262.87V60.4618C6.31649 45.9374 12.0873 32.0127 22.3461 21.7424C32.605 11.4721 46.5143 5.69489 61.0225 5.67817H183.205C197.714 5.69349 211.624 11.4701 221.884 21.7405C232.144 32.011 237.916 45.9365 237.933 60.4618V260.638C234.504 261.488 231.458 263.462 229.281 266.246C227.104 269.031 225.922 272.465 225.922 276C225.922 279.536 227.104 282.97 229.281 285.755C231.458 288.539 234.504 290.513 237.933 291.363C239.695 291.802 241.521 291.934 243.328 291.752C247.224 291.355 250.834 289.524 253.459 286.614C256.084 283.705 257.538 279.924 257.538 276.003C257.538 272.082 256.084 268.301 253.459 265.392C250.834 262.482 247.224 260.652 243.328 260.254H243.333ZM241.756 286.424C241.479 286.424 241.2 286.414 240.92 286.393C238.196 286.18 235.663 284.907 233.867 282.846C232.07 280.785 231.152 278.102 231.31 275.371C231.467 272.64 232.688 270.08 234.71 268.24C236.732 266.401 239.394 265.428 242.125 265.531C244.855 265.634 247.436 266.805 249.314 268.792C251.191 270.779 252.216 273.424 252.168 276.159C252.12 278.894 251.002 281.501 249.055 283.42C247.109 285.339 244.488 286.418 241.756 286.424Z" fill="#666666"/>
</svg>
