<svg width="257" height="396" viewBox="0 0 257 396" fill="none" xmlns="http://www.w3.org/2000/svg">
<path d="M240.664 0.224976C236.709 0.231881 232.9 1.72205 229.989 4.40158C227.078 7.08111 225.275 10.7555 224.936 14.7001C224.598 18.6447 225.748 22.5731 228.16 25.7107C230.572 28.8482 234.07 30.9671 237.966 31.6495V335.534C237.949 350.058 232.178 363.983 221.92 374.253C211.661 384.523 197.752 390.301 183.243 390.317H61.0558C46.5475 390.301 32.6383 384.523 22.3794 374.253C12.1205 363.983 6.3497 350.058 6.333 335.534V133.083C6.33384 132.413 6.0863 131.767 5.63836 131.27C5.19041 130.773 4.574 130.46 3.90872 130.393H3.63525C2.91976 130.393 2.23359 130.677 1.72766 131.184C1.22174 131.69 0.9375 132.377 0.9375 133.093V335.534C0.93681 343.438 2.49137 351.264 5.51228 358.567C8.5332 365.87 12.9613 372.505 18.5439 378.094C24.1265 383.684 30.754 388.117 38.0483 391.142C45.3425 394.167 53.1605 395.724 61.0558 395.724H183.243C199.188 395.721 214.478 389.379 225.752 378.091C237.026 366.804 243.36 351.496 243.361 335.534V31.66C247.257 30.9777 250.756 28.8588 253.168 25.7212C255.58 22.5837 256.73 18.6552 256.391 14.7106C256.052 10.766 254.25 7.09164 251.338 4.4121C248.427 1.73257 244.618 0.242405 240.664 0.235499V0.224976ZM241.899 26.4059C241.517 26.2088 241.094 26.1059 240.664 26.1059C240.234 26.1059 239.81 26.2088 239.428 26.4059C236.792 26.0905 234.376 24.7794 232.674 22.7404C230.972 20.7014 230.112 18.0886 230.27 15.436C230.427 12.7833 231.591 10.2912 233.523 8.46889C235.455 6.64658 238.009 5.6317 240.664 5.6317C243.318 5.6317 245.872 6.64658 247.804 8.46889C249.736 10.2912 250.9 12.7833 251.058 15.436C251.215 18.0886 250.355 20.7014 248.653 22.7404C246.951 24.7794 244.535 26.0905 241.899 26.4059Z" fill="#666666"/>
</svg>
