<svg width="61" height="60" viewBox="0 0 61 60" fill="none" xmlns="http://www.w3.org/2000/svg">
<g clip-path="url(#clip0)">
<path d="M47.9526 5.66634C36.0151 -2.93805 19.5988 -1.6162 9.19166 8.78736C9.06741 8.91162 8.95376 9.04092 8.83203 9.16619L16.8293 9.63593L17.2521 16.823C23.2173 10.876 32.4324 9.67634 39.7215 13.8975L36.3459 17.2781L43.587 16.8533L50.7746 16.43L51.2444 8.43379L51.6227 2.00487L47.9526 5.66634Z" fill="#4DB7E5"/>
<path d="M43.9837 50.3682L43.5604 43.1816C37.5962 49.1262 28.3836 50.3253 21.0965 46.1062L24.4716 42.7306L17.2305 43.1559L10.0434 43.5792L9.57365 51.5754L9.19482 58.0054L12.8634 54.3373C24.8009 62.9417 41.2167 61.6199 51.6238 51.2163C51.7471 51.092 51.8617 50.9637 51.9829 50.8375L43.9837 50.3682Z" fill="#4DB7E5"/>
<path d="M14.3016 20.6918L17.6822 24.0619L17.2569 16.8207L16.8341 9.63366L8.83686 9.16391L2.40339 8.78711L6.07043 12.4557C-2.53397 24.3932 -1.21212 40.809 9.19145 51.2161C9.3157 51.3404 9.44501 51.454 9.57027 51.5752L10.04 43.579L17.2271 43.1557C11.2821 37.192 10.0824 27.9794 14.3016 20.6918Z" fill="#348FD9"/>
<path d="M51.6205 8.78721C51.4962 8.66447 51.3669 8.54931 51.2416 8.42859L50.7724 16.4248L43.5848 16.8476C49.5324 22.8124 50.7325 32.0284 46.5104 39.317L43.1348 35.9414L43.5601 43.1826L43.9833 50.3691L51.9796 50.8389L58.4085 51.2172L54.7415 47.5492C63.3464 35.6111 62.0245 19.1948 51.6205 8.78721Z" fill="#348FD9"/>
<path d="M41.7852 32.0711V27.9333H39.4774C39.2445 26.912 38.8399 25.9381 38.2813 25.0522L39.9148 23.4187L36.9892 20.4931L35.3557 22.1266C34.4703 21.568 33.4959 21.1634 32.4751 20.9311V18.6233H28.3374V20.9311C27.316 21.1634 26.3417 21.568 25.4563 22.1266L23.8228 20.4931L20.8972 23.4187L22.5307 25.0522C21.9721 25.9381 21.5675 26.912 21.3351 27.9333H19.0273V32.0711H21.3351C21.5675 33.0919 21.9721 34.0662 22.5307 34.9517L20.8972 36.5851L23.8228 39.5107L25.4563 37.8772C26.3417 38.4358 27.316 38.8404 28.3374 39.0733V41.3811H32.4751V39.0733C33.4959 38.8404 34.4703 38.4358 35.3557 37.8772L36.9892 39.5107L39.9148 36.5851L38.2813 34.9517C38.8399 34.0662 39.2445 33.0919 39.4774 32.0711H41.7852ZM30.4062 34.14C28.1207 34.14 26.2685 32.2872 26.2685 30.0022C26.2685 27.7166 28.1207 25.8644 30.4062 25.8644C32.6913 25.8644 34.544 27.7166 34.544 30.0022C34.544 32.2872 32.6913 34.14 30.4062 34.14Z" fill="#FF9137"/>
<path d="M7.42679 16.0141C6.99845 16.7132 6.59941 17.4375 6.23926 18.1644L8.09405 19.0812C8.42541 18.4089 8.79465 17.7365 9.19066 17.094L7.42679 16.0141Z" fill="#62A9E6"/>
<path d="M5.2905 20.3163C3.41961 25.1092 2.97562 30.3416 4.0131 35.381L6.03957 34.9673C5.0824 30.3173 5.49204 25.4901 7.21797 21.0674L5.2905 20.3163Z" fill="#62A9E6"/>
<path d="M38.2812 25.0523L39.9147 23.4188L38.4519 21.956L33.3312 27.0767C34.407 28.1157 34.8384 29.6543 34.4596 31.1009C34.0812 32.5475 32.9513 33.6774 31.5047 34.0557C30.0576 34.4345 28.5196 34.0032 27.4806 32.9273L22.3599 38.048L23.8226 39.5108L25.4561 37.8773C26.3416 38.436 27.3159 38.8405 28.3372 39.0734V41.3812H32.475V39.0734C33.4958 38.8405 34.4702 38.436 35.3556 37.8773L36.9891 39.5108L39.9147 36.5853L38.2812 34.9518C38.8398 34.0663 39.2444 33.092 39.4772 32.0712H41.785V27.9334H39.4772C39.2444 26.9121 38.8398 25.9382 38.2812 25.0523Z" fill="#FF7300"/>
<path d="M52.3156 17.7745L52.7697 10.0464C52.3924 9.62416 52.0262 9.19382 51.6206 8.78721C51.4963 8.66447 51.367 8.54931 51.2418 8.42859L50.7725 16.4248L43.585 16.8476C44.0234 17.2866 44.427 17.7457 44.8129 18.2154L45.1296 18.1967L52.3156 17.7745Z" fill="#2D7DBF"/>
<path d="M51.9797 50.8374L43.9835 50.3681L43.5602 43.1805C43.1218 43.6195 42.6621 44.0236 42.1929 44.4084L42.2111 44.7251L42.6333 51.9112L50.3619 52.3653C50.7847 51.988 51.214 51.6218 51.6206 51.2162C51.7448 51.0919 51.8585 50.9636 51.9797 50.8374Z" fill="#45A7D1"/>
<path d="M10.9009 7.62265L10.4953 7.5979C10.0564 7.98784 9.61191 8.36768 9.19166 8.78741C9.06741 8.91167 8.95376 9.04098 8.83203 9.16624L16.8293 9.63599L17.2521 16.8231C17.8941 16.1877 18.581 15.6002 19.3078 15.0648L18.8937 8.09239L10.9009 7.62265Z" fill="#45A7D1"/>
<path d="M9.57041 51.5752L10.0402 43.5789L17.2272 43.1557C16.7888 42.7172 16.3842 42.2576 15.9993 41.7884L15.6826 41.8065L8.49657 42.2288L8.04248 49.9574C8.41979 50.3801 8.78599 50.8095 9.19159 51.2161C9.31584 51.3403 9.44515 51.454 9.57041 51.5752Z" fill="#2D7DBF"/>
</g>
<defs>
<clipPath id="clip0">
<rect width="60" height="60" fill="white" transform="translate(0.40625)"/>
</clipPath>
</defs>
</svg>
