<svg width="61" height="60" viewBox="0 0 61 60" fill="none" xmlns="http://www.w3.org/2000/svg">
<path d="M30.406 58.1193C22.8951 58.1193 15.8339 55.1945 10.5229 49.8835C5.21188 44.5725 2.28711 37.5113 2.28711 30.0004C2.28711 22.4895 5.21188 15.428 10.5227 10.1171C15.8335 4.80611 22.895 1.88135 30.406 1.88135C37.917 1.88135 44.9782 4.80623 50.2891 10.1173C51.0678 10.896 51.0678 12.1588 50.2891 12.9378C49.5102 13.7165 48.2478 13.7163 47.4686 12.9378C42.911 8.3801 36.8514 5.87018 30.4058 5.87018C23.9601 5.87018 17.9007 8.3801 13.343 12.9378C8.78539 17.4954 6.27547 23.5549 6.27547 30.0006C6.27547 36.4463 8.78539 42.5058 13.343 47.0635C17.9007 51.6211 23.9602 54.131 30.4059 54.131C36.8516 54.131 42.9111 51.6211 47.4688 47.0635C52.2574 42.2748 54.8239 35.6462 54.5104 28.8769C54.4593 27.7765 55.3101 26.8436 56.4102 26.7925C57.5028 26.739 58.4435 27.5919 58.4946 28.6922C58.86 36.5799 55.8691 44.3038 50.289 49.8839C44.9782 55.1945 37.9169 58.1193 30.406 58.1193Z" fill="#348FD9"/>
<path d="M48.8786 50.4673C48.368 50.4673 47.8579 50.2725 47.4684 49.8833L10.5225 12.9376C9.7438 12.1589 9.7438 10.8961 10.5225 10.1171C11.3015 9.33852 12.5638 9.33852 13.343 10.1171L50.2889 47.063C51.0676 47.8418 51.0676 49.1046 50.2889 49.8835C49.8994 50.2728 49.389 50.4673 48.8786 50.4673Z" fill="#348FD9"/>
<path d="M11.9331 50.4674C11.4225 50.4674 10.9124 50.2725 10.523 49.8833C9.74429 49.1046 9.74429 47.8418 10.523 47.0628L31.1111 26.4748C31.89 25.6962 33.1524 25.6962 33.9315 26.4748C34.7103 27.2535 34.7103 28.5163 33.9315 29.2952L13.3432 49.8835C12.9538 50.2728 12.4435 50.4674 11.9331 50.4674Z" fill="#348FD9"/>
<path d="M19.5594 13.5349L13.9412 19.1531C12.5865 20.5078 10.3898 20.5078 9.0351 19.1531L3.41689 13.5349C2.06221 12.1802 2.06221 9.98354 3.41689 8.62885L9.0351 3.01064C10.3898 1.65596 12.5865 1.65596 13.9412 3.01064L19.5594 8.62885C20.9142 9.98354 20.9142 12.1802 19.5594 13.5349Z" fill="#4DB7E5"/>
<path d="M11.4879 22.1634C10.0286 22.1634 8.6566 21.5951 7.62465 20.5632L2.00645 14.9449C0.974609 13.9131 0.40625 12.5411 0.40625 11.0816C0.40625 9.62215 0.974609 8.25035 2.00645 7.2184L7.62465 1.6002C8.65672 0.568359 10.0288 0 11.4879 0C12.947 0 14.3193 0.568359 15.3511 1.6002L20.9693 7.2184C22.0013 8.25047 22.5695 9.6225 22.5695 11.0816C22.5695 12.5407 22.0011 13.9129 20.9693 14.9448L15.3511 20.563C14.3193 21.5951 12.9473 22.1634 11.4879 22.1634ZM11.4879 3.98848C11.0938 3.98848 10.7234 4.14199 10.445 4.42066L4.82691 10.0389C4.25176 10.614 4.25176 11.5495 4.82691 12.1247L10.4451 17.7429C10.7236 18.0214 11.0941 18.1751 11.488 18.1751C11.8818 18.1751 12.2524 18.0216 12.5307 17.7429L18.1491 12.1247C18.7243 11.5495 18.7243 10.614 18.1491 10.0389L12.5309 4.42066C12.2523 4.14211 11.882 3.98848 11.4879 3.98848Z" fill="#348FD9"/>
<path d="M36.0469 35.6409C32.9317 38.7561 27.8808 38.7561 24.7656 35.6409C21.6504 32.5257 21.6504 27.4748 24.7656 24.3598C27.8808 21.2446 32.9317 21.2446 36.0466 24.3598C39.1622 27.4749 39.1622 32.5257 36.0469 35.6409Z" fill="#FF9137"/>
<path d="M30.406 39.9714C27.7427 39.9714 25.2387 38.9342 23.3553 37.0509C19.4675 33.1631 19.4675 26.8372 23.3553 22.9494C25.2386 21.0662 27.7427 20.0288 30.406 20.0288C33.0693 20.0288 35.5733 21.066 37.4567 22.9494C41.3445 26.8372 41.3445 33.1631 37.4567 37.0509C35.5733 38.934 33.0693 39.9714 30.406 39.9714ZM30.406 24.0174C28.808 24.0174 27.3056 24.6395 26.1757 25.7697C23.843 28.1022 23.843 31.8978 26.1757 34.2305C27.3056 35.3607 28.808 35.9828 30.406 35.9828C32.004 35.9828 33.5064 35.3607 34.6364 34.2305C36.969 31.898 36.969 28.1024 34.6364 25.7697C33.5062 24.6397 32.0037 24.0174 30.406 24.0174Z" fill="#FF7300"/>
<path d="M57.3958 51.3713L51.7776 56.9895C50.4229 58.3442 48.2262 58.3442 46.8715 56.9895L41.2533 51.3713C39.8986 50.0166 39.8986 47.82 41.2533 46.4653L46.8715 40.8471C48.2262 39.4924 50.4229 39.4924 51.7776 40.8471L57.3958 46.4653C58.7505 47.8202 58.7505 50.0166 57.3958 51.3713Z" fill="#4DB7E5"/>
<path d="M49.3248 60.0001C47.8656 60.0001 46.4935 59.4318 45.4616 58.3999L39.8434 52.7817C38.8113 51.7497 38.2432 50.3776 38.2432 48.9185C38.2432 47.4594 38.8115 46.0873 39.8434 45.0553L45.4616 39.4371C46.4936 38.405 47.8657 37.8369 49.3248 37.8369C50.784 37.8369 52.156 38.4053 53.188 39.4371L58.8062 45.0553C59.8383 46.0874 60.4064 47.4594 60.4064 48.9185C60.4064 50.3776 59.838 51.7498 58.8062 52.7817L53.188 58.3999C52.1559 59.432 50.7839 60.0001 49.3248 60.0001ZM49.3248 41.8253C48.9307 41.8253 48.5604 41.9788 48.2819 42.2575L42.6637 47.8757C42.0886 48.4508 42.0886 49.3863 42.6637 49.9615L48.2819 55.5797C48.5604 55.8583 48.9309 56.0119 49.3248 56.0119C49.7186 56.0119 50.0892 55.8584 50.3675 55.5797L55.9857 49.9615C56.5609 49.3863 56.5609 48.4508 55.9857 47.8757L50.3675 42.2575C50.0891 41.9787 49.7186 41.8253 49.3248 41.8253Z" fill="#348FD9"/>
<path d="M46.8715 19.1531L41.2533 13.5349C39.8986 12.1802 39.8986 9.98354 41.2533 8.62885L46.8715 3.01064C48.2262 1.65596 50.4229 1.65596 51.7776 3.01064L57.3958 8.62885C58.7505 9.98354 58.7505 12.1802 57.3958 13.5349L51.7776 19.1531C50.4229 20.5079 48.2264 20.5079 46.8715 19.1531Z" fill="#4DB7E5"/>
<path d="M49.3248 22.1634C47.8656 22.1634 46.4935 21.5951 45.4616 20.5632L39.8434 14.9448C38.8113 13.9127 38.2432 12.5407 38.2432 11.0816C38.2432 9.6225 38.8115 8.25035 39.8434 7.2184L45.4616 1.6002C46.4935 0.568359 47.8653 0 49.3248 0C50.7841 0 52.156 0.568359 53.188 1.6002L58.8062 7.2184C59.8383 8.25047 60.4064 9.6225 60.4064 11.0816C60.4064 12.5407 59.838 13.9129 58.8062 14.9448L53.188 20.563C52.1559 21.5951 50.7839 22.1634 49.3248 22.1634ZM49.3248 3.98848C48.9307 3.98848 48.5604 4.14199 48.2819 4.42066L42.6637 10.0389C42.0886 10.614 42.0886 11.5495 42.6637 12.1247L48.2819 17.7429C48.5604 18.0214 48.9309 18.1751 49.3248 18.1751C49.7186 18.1751 50.0892 18.0216 50.3675 17.7429L55.9857 12.1247C56.5609 11.5495 56.5609 10.614 55.9857 10.0389L50.3675 4.42066C50.0891 4.14211 49.7186 3.98848 49.3248 3.98848Z" fill="#348FD9"/>
<path d="M9.0351 56.9895L3.41689 51.3713C2.06221 50.0166 2.06221 47.82 3.41689 46.4653L9.0351 40.8471C10.3898 39.4924 12.5865 39.4924 13.9412 40.8471L19.5594 46.4653C20.914 47.82 20.914 50.0166 19.5594 51.3713L13.9412 56.9895C12.5865 58.3442 10.3898 58.3442 9.0351 56.9895Z" fill="#4DB7E5"/>
<path d="M11.4879 60.0001C10.0286 60.0001 8.6566 59.4318 7.62465 58.3999L2.00645 52.7817C0.974609 51.7497 0.40625 50.3776 0.40625 48.9185C0.40625 47.4593 0.974609 46.0873 2.00645 45.0553L7.62465 39.4371C8.65672 38.405 10.0288 37.8369 11.4879 37.8369C12.947 37.8369 14.3191 38.4053 15.3511 39.4371L20.9693 45.0553C22.0013 46.0874 22.5695 47.4594 22.5695 48.9185C22.5695 50.3778 22.0011 51.7498 20.9693 52.7817L15.3511 58.3999C14.3193 59.432 12.9473 60.0001 11.4879 60.0001ZM11.4879 41.8253C11.0938 41.8253 10.7234 41.9788 10.445 42.2575L4.8268 47.8757C4.25164 48.4508 4.25164 49.3863 4.8268 49.9615L10.445 55.5797C10.7234 55.8583 11.094 56.0119 11.4879 56.0119C11.8817 56.0119 12.2523 55.8584 12.5306 55.5797L18.1488 49.9615C18.7239 49.3863 18.7239 48.4508 18.1488 47.8757L12.5306 42.2575C12.2523 41.9787 11.882 41.8253 11.4879 41.8253Z" fill="#348FD9"/>
</svg>
