<svg width="61" height="60" viewBox="0 0 61 60" fill="none" xmlns="http://www.w3.org/2000/svg">
<path d="M20.19 43.8765C20.19 40.0567 23.2866 36.9601 27.1064 36.9601C27.1141 36.9601 27.1215 36.9607 27.1291 36.9607V20.7805L25.7359 22.1738C25.4949 22.4148 25.1104 22.442 24.8421 22.2319C24.0769 21.6329 23.3866 20.9426 22.7876 20.1773C22.5775 19.909 22.6047 19.5246 22.8457 19.2836L24.5623 17.567C24.7738 17.3555 24.8185 17.0321 24.6794 16.7672C24.4429 16.3171 24.246 15.8431 24.0927 15.3498C24.0039 15.0643 23.7436 14.8674 23.4447 14.8674H21.0158C20.6752 14.8674 20.3842 14.6151 20.3429 14.277C20.285 13.8006 20.2549 13.3158 20.2549 12.8238C20.2549 12.8014 20.2558 12.7792 20.2559 12.7569H7.02198C6.70967 12.7569 6.41008 12.881 6.18927 13.1018L1.63448 17.6566C1.41367 17.8774 1.28955 18.177 1.28955 18.4893V43.9426C1.28955 44.593 1.81678 45.1203 2.4672 45.1203H20.3037C20.2304 44.7166 20.19 44.3013 20.19 43.8765Z" fill="#FF9137"/>
<path d="M6.17679 43.9425V18.4893C6.17679 18.177 6.30091 17.8774 6.52172 17.6566L11.0765 13.1018C11.2973 12.881 11.5969 12.7569 11.9092 12.7569H7.02198C6.70967 12.7569 6.41008 12.881 6.18927 13.1018L1.63448 17.6566C1.41367 17.8774 1.28955 18.177 1.28955 18.4893V43.9426C1.28955 44.593 1.81678 45.1203 2.4672 45.1203H7.35443C6.70402 45.1201 6.17679 44.5929 6.17679 43.9425Z" fill="#FF9137"/>
<path d="M59.2298 36.8029H39.0732C38.7481 36.8029 38.4844 36.5393 38.4844 36.2141V29.7724C38.4844 29.4472 38.7481 29.1836 39.0732 29.1836H59.2298C59.555 29.1836 59.8186 29.4472 59.8186 29.7724V36.2141C59.8186 36.5394 59.555 36.8029 59.2298 36.8029Z" fill="#4DB7E5"/>
<path d="M42.4483 36.2141V29.7724C42.4483 29.4472 42.712 29.1836 43.0372 29.1836H39.0732C38.7481 29.1836 38.4844 29.4472 38.4844 29.7724V36.2141C38.4844 36.5393 38.7481 36.8029 39.0732 36.8029H43.0372C42.712 36.8029 42.4483 36.5394 42.4483 36.2141Z" fill="#4DB7E5"/>
<path d="M59.2298 47.9602H39.0732C38.7481 47.9602 38.4844 47.6965 38.4844 47.3713V40.9296C38.4844 40.6045 38.7481 40.3408 39.0732 40.3408H59.2298C59.555 40.3408 59.8186 40.6045 59.8186 40.9296V47.3713C59.8186 47.6965 59.555 47.9602 59.2298 47.9602Z" fill="#4DB7E5"/>
<path d="M42.4483 47.3713V40.9296C42.4483 40.6045 42.712 40.3408 43.0372 40.3408H39.0732C38.7481 40.3408 38.4844 40.6045 38.4844 40.9296V47.3713C38.4844 47.6965 38.7481 47.9602 39.0732 47.9602H43.0372C42.712 47.9602 42.4483 47.6965 42.4483 47.3713Z" fill="#4DB7E5"/>
<path d="M59.2298 59.1169H39.0732C38.7481 59.1169 38.4844 58.8532 38.4844 58.5281V52.0864C38.4844 51.7612 38.7481 51.4975 39.0732 51.4975H59.2298C59.555 51.4975 59.8186 51.7612 59.8186 52.0864V58.5281C59.8186 58.8533 59.555 59.1169 59.2298 59.1169Z" fill="#4DB7E5"/>
<path d="M42.4483 58.5281V52.0864C42.4483 51.7612 42.712 51.4975 43.0372 51.4975H39.0732C38.7481 51.4975 38.4844 51.7612 38.4844 52.0864V58.5281C38.4844 58.8532 38.7481 59.1169 39.0732 59.1169H43.0372C42.712 59.1169 42.4483 58.8533 42.4483 58.5281Z" fill="#4DB7E5"/>
<path d="M48.2678 14.5237V14.7014C48.2678 15.1892 48.6631 15.5846 49.151 15.5846C49.6389 15.5846 50.0342 15.1892 50.0342 14.7014V14.5237C50.0342 13.9004 49.8134 13.2947 49.4125 12.8182C49.0984 12.4451 48.5412 12.397 48.168 12.711C47.7948 13.0251 47.7469 13.5823 48.061 13.9556C48.1552 14.0678 48.2678 14.2574 48.2678 14.5237Z" fill="#348FD9"/>
<path d="M49.1513 21.1191C48.6634 21.1191 48.2681 21.5146 48.2681 22.0024V23.4156C48.2681 23.9033 48.6634 24.2988 49.1513 24.2988C49.6392 24.2988 50.0345 23.9033 50.0345 23.4156V22.0024C50.0345 21.5146 49.6392 21.1191 49.1513 21.1191Z" fill="#348FD9"/>
<path d="M50.0345 17.6451C50.0345 17.1573 49.6392 16.7618 49.1513 16.7618C48.6634 16.7618 48.2681 17.1573 48.2681 17.6451V19.0583C48.2681 19.546 48.6634 19.9415 49.1513 19.9415C49.6392 19.9415 50.0345 19.546 50.0345 19.0583V17.6451Z" fill="#348FD9"/>
<path d="M34.7935 54.4235H33.3803C32.8924 54.4235 32.4971 54.8189 32.4971 55.3067C32.4971 55.7945 32.8924 56.19 33.3803 56.19H34.7935C35.2814 56.19 35.6767 55.7945 35.6767 55.3067C35.6767 54.8189 35.2814 54.4235 34.7935 54.4235Z" fill="#348FD9"/>
<path d="M30.4361 54.4235H29.0229C28.5351 54.4235 28.1396 54.8189 28.1396 55.3067C28.1396 55.7945 28.5351 56.19 29.0229 56.19H30.4361C30.924 56.19 31.3193 55.7945 31.3193 55.3067C31.3193 54.8189 30.924 54.4235 30.4361 54.4235Z" fill="#348FD9"/>
<path d="M26.0789 54.4235H24.6657C24.1779 54.4235 23.7825 54.8189 23.7825 55.3067C23.7825 55.7945 24.1779 56.19 24.6657 56.19H26.0789C26.5667 56.19 26.9621 55.7945 26.9621 55.3067C26.9621 54.8189 26.5667 54.4235 26.0789 54.4235Z" fill="#348FD9"/>
<path d="M21.7217 54.4235H20.3085C19.8207 54.4235 19.4253 54.8189 19.4253 55.3067C19.4253 55.7945 19.8207 56.19 20.3085 56.19H21.7217C22.2095 56.19 22.6049 55.7945 22.6049 55.3067C22.6049 54.8189 22.2095 54.4235 21.7217 54.4235Z" fill="#348FD9"/>
<path d="M17.7299 54.3539C17.5113 54.2608 17.3368 54.0804 17.2513 53.8589C17.0752 53.4038 16.5638 53.1778 16.1089 53.3535C15.654 53.5295 15.4277 54.0408 15.6036 54.4959C15.8601 55.1593 16.3826 55.6999 17.0372 55.9789C17.1501 56.027 17.2676 56.0499 17.3832 56.0499C17.7264 56.0499 18.053 55.8485 18.1961 55.5128C18.3873 55.064 18.1787 54.5452 17.7299 54.3539Z" fill="#348FD9"/>
<path d="M16.3095 52.1315C16.7973 52.1315 17.1927 51.736 17.1927 51.2483V49.8351C17.1927 49.3473 16.7973 48.9518 16.3095 48.9518C15.8217 48.9518 15.4263 49.3473 15.4263 49.8351V51.2483C15.4263 51.7362 15.8217 52.1315 16.3095 52.1315Z" fill="#348FD9"/>
<path d="M20.3336 20.1363H8.08392C7.59614 20.1363 7.20068 20.5317 7.20068 21.0195C7.20068 21.5073 7.59614 21.9028 8.08392 21.9028H20.3336C20.8213 21.9028 21.2168 21.5073 21.2168 21.0195C21.2168 20.5317 20.8213 20.1363 20.3336 20.1363Z" fill="#FFBE88"/>
<path d="M20.3336 24.4156H8.08392C7.59614 24.4156 7.20068 24.811 7.20068 25.2988C7.20068 25.7866 7.59614 26.182 8.08392 26.182H20.3336C20.8213 26.182 21.2168 25.7866 21.2168 25.2988C21.2168 24.811 20.8213 24.4156 20.3336 24.4156Z" fill="#FFBE88"/>
<path d="M20.3336 28.6757H8.08392C7.59614 28.6757 7.20068 29.0712 7.20068 29.559C7.20068 30.0467 7.59614 30.4422 8.08392 30.4422H20.3336C20.8213 30.4422 21.2168 30.0467 21.2168 29.559C21.2168 29.0712 20.8213 28.6757 20.3336 28.6757Z" fill="#FFBE88"/>
<path d="M21.2168 33.8574C21.2168 33.3696 20.8213 32.9741 20.3336 32.9741H8.08392C7.59614 32.9741 7.20068 33.3696 7.20068 33.8574C7.20068 34.3451 7.59614 34.7406 8.08392 34.7406H20.3336C20.8213 34.7406 21.2168 34.3451 21.2168 33.8574Z" fill="#FFBE88"/>
<path d="M8.08392 37.2534C7.59614 37.2534 7.20068 37.6488 7.20068 38.1366C7.20068 38.6244 7.59614 39.0199 8.08392 39.0199H13.5752C14.063 39.0199 14.4584 38.6244 14.4584 38.1366C14.4584 37.6488 14.063 37.2534 13.5752 37.2534H8.08392Z" fill="#FFBE88"/>
<path d="M26.0424 46.457C26.2148 46.6294 26.441 46.7158 26.6669 46.7158C26.8929 46.7158 27.119 46.6296 27.2914 46.457L30.8568 42.8917C31.2017 42.5468 31.2017 41.9875 30.8568 41.6427C30.5117 41.2978 29.9526 41.2978 29.6078 41.6427L26.6669 44.5835L24.6049 42.5215C24.2599 42.1765 23.7007 42.1765 23.3559 42.5215C23.0109 42.8664 23.0109 43.4257 23.3559 43.7705L26.0424 46.457Z" fill="#FF7300"/>
<path d="M40.0937 22.9276C40.9145 22.285 41.6565 21.543 42.2993 20.7218C42.7832 20.1034 42.7277 19.2167 42.1702 18.6592L40.5602 17.0493C40.7713 16.6315 40.9516 16.196 41.0977 15.7509H43.3755C44.1641 15.7509 44.8304 15.1632 44.9252 14.3838C44.9551 14.1376 44.9776 13.8891 44.9933 13.6403H45.9812C46.4691 13.6403 46.8644 13.2448 46.8644 12.757C46.8644 12.2693 46.4691 11.8738 45.9812 11.8738H44.9834C44.9683 11.6697 44.9499 11.4661 44.9254 11.264C44.8305 10.4847 44.1643 9.897 43.3758 9.897H41.098C40.9519 9.45209 40.7716 9.0166 40.5605 8.59853L42.1704 6.98857C42.7279 6.43095 42.7834 5.54419 42.2995 4.92592C41.6569 4.10498 40.9147 3.36295 40.0939 2.72031C39.4755 2.23618 38.5888 2.29141 38.0313 2.84926L36.4212 4.4591C36.0036 4.24807 35.5681 4.06777 35.1228 3.92162V1.64382C35.1228 0.855266 34.5352 0.188953 33.7559 0.0941529C32.7258 -0.0313843 31.6663 -0.0313843 30.636 0.0941529C29.8566 0.189071 29.269 0.855148 29.269 1.64382V3.92151C28.8238 4.06765 28.3882 4.24795 27.9705 4.4591L26.3607 2.84926C25.803 2.29152 24.9161 2.23606 24.298 2.72007C23.4769 3.36271 22.7349 4.10475 22.0924 4.92569C21.6083 5.54407 21.6637 6.43084 22.2213 6.98845L23.8312 8.5983C23.6201 9.01601 23.4397 9.45174 23.2936 9.89677H21.0159C20.2273 9.89677 19.5612 10.4844 19.4662 11.2637C19.4416 11.4657 19.4231 11.6694 19.4082 11.8736H7.02192C6.47149 11.8736 5.95391 12.0879 5.56458 12.4772L1.00979 17.0323C0.620582 17.4215 0.40625 17.9389 0.40625 18.4895V43.9428C0.40625 45.0791 1.33082 46.0037 2.46713 46.0037H15.426V46.8908C15.426 47.3786 15.8214 47.774 16.3092 47.774C16.797 47.774 17.1924 47.3786 17.1924 46.8908V46.0037H19.6039C20.5324 49.2735 23.543 51.6764 27.1063 51.6764C31.4071 51.6764 34.9059 48.1775 34.9059 43.8768C34.9059 39.8827 31.8875 36.5821 28.0122 36.1316V32.1198C28.0122 31.632 27.6167 31.2366 27.1289 31.2366C26.6412 31.2366 26.2457 31.632 26.2457 32.1198V36.1258C22.3485 36.5556 19.3067 39.8671 19.3067 43.8768C19.3067 43.9977 19.3103 44.1177 19.3158 44.2373H2.46713C2.30485 44.2373 2.17272 44.1052 2.17272 43.9429V18.4895C2.17272 18.412 2.20416 18.3361 2.25892 18.2813L6.81371 13.7265C6.86941 13.6709 6.94325 13.6403 7.02192 13.6403H19.3977C19.4135 13.8892 19.436 14.1377 19.4659 14.3838C19.5608 15.1632 20.2269 15.7509 21.0155 15.7509H23.2932C23.4394 16.196 23.6197 16.6316 23.8308 17.0493L22.221 18.6592C21.6634 19.2167 21.6078 20.1036 22.0919 20.7219C22.7347 21.543 23.4767 22.285 24.2975 22.9276C24.875 23.3795 25.6868 23.3607 26.2456 22.9019V27.9979C26.2456 28.4857 26.641 28.8811 27.1288 28.8811C27.6166 28.8811 28.0121 28.4857 28.0121 27.9979V21.2089C28.4172 21.4111 28.8383 21.5849 29.2685 21.7261V24.0038C29.2685 24.7924 29.8561 25.4587 30.6355 25.5536C31.1507 25.6162 31.6757 25.648 32.1954 25.648C32.7152 25.648 33.2401 25.6162 33.7553 25.5535C34.5347 25.4587 35.1223 24.7924 35.1223 24.0038V21.7261C35.5675 21.58 36.0031 21.3997 36.4208 21.1886L38.0307 22.7985C38.5886 23.356 39.4752 23.4114 40.0937 22.9276ZM27.1063 37.8435C30.4331 37.8435 33.1394 40.55 33.1394 43.8766C33.1394 47.2032 30.433 49.9097 27.1063 49.9097C23.7797 49.9097 21.0732 47.2032 21.0732 43.8766C21.0732 40.55 23.7796 37.8435 27.1063 37.8435ZM35.7284 19.5583C35.3235 19.7709 34.8966 19.9476 34.4593 20.0835C33.7994 20.2888 33.3561 20.8881 33.3561 21.5749V23.8209C32.587 23.9013 31.8046 23.9013 31.0352 23.8209V21.5749C31.0352 20.8881 30.5918 20.2888 29.9317 20.0834C29.4946 19.9475 29.0676 19.7709 28.6628 19.5582C28.0509 19.2368 27.3135 19.347 26.8278 19.8326L25.2404 21.42C24.6381 20.932 24.0873 20.3812 23.5992 19.7789L25.1865 18.1914C25.6722 17.7057 25.7824 16.9684 25.461 16.3565C25.2485 15.9518 25.0717 15.5249 24.9357 15.0875C24.7304 14.4275 24.131 13.9841 23.4443 13.9841H21.1983C21.1582 13.5996 21.1378 13.2101 21.1378 12.8237C21.1378 12.4373 21.1582 12.0479 21.1983 11.6632H23.4443C24.1311 11.6632 24.7304 11.2199 24.9357 10.5599C25.0717 10.1226 25.2485 9.69563 25.4609 9.29099C25.7824 8.67896 25.6721 7.94164 25.1865 7.45598L23.5992 5.86851C24.0872 5.26626 24.638 4.71536 25.2404 4.22734L26.8278 5.81469C27.3134 6.30023 28.0507 6.41058 28.6628 6.0892C29.0676 5.87664 29.4946 5.69987 29.9317 5.56385C30.5917 5.35871 31.0352 4.75928 31.0352 4.07248V1.82659C31.8041 1.74616 32.587 1.74616 33.3561 1.82659V4.0726C33.3561 4.75952 33.7996 5.35882 34.4593 5.56397C34.8967 5.69999 35.3237 5.87675 35.7284 6.08932C36.3404 6.4107 37.0779 6.30035 37.5633 5.81481L39.1508 4.22758C39.7531 4.71559 40.304 5.26638 40.792 5.86874L39.2047 7.45621C38.719 7.94187 38.6087 8.67932 38.9301 9.29111C39.1429 9.69622 39.3197 10.1232 39.4555 10.56C39.6605 11.2201 40.2599 11.6636 40.9469 11.6636H43.1929C43.2332 12.0484 43.2535 12.438 43.2535 12.824C43.2535 13.2101 43.2332 13.5996 43.1929 13.9845H40.9468C40.2597 13.9845 39.6604 14.428 39.4555 15.0878C39.3195 15.525 39.1427 15.952 38.9303 16.3568C38.6087 16.9687 38.7189 17.7061 39.2044 18.1919L40.7919 19.7793C40.3038 20.3817 39.753 20.9325 39.1507 21.4205L37.5634 19.833C37.0778 19.3472 36.3405 19.2369 35.7284 19.5583Z" fill="#FF7300"/>
<path d="M36.7323 9.84822C36.2864 10.0461 36.0854 10.5679 36.2833 11.0137C36.5374 11.5864 36.6662 12.1954 36.6662 12.8237C36.6662 15.2888 34.6607 17.2944 32.1954 17.2944C29.7303 17.2944 27.7247 15.2888 27.7247 12.8237C27.7247 10.3585 29.7303 8.35296 32.1954 8.35296C32.7409 8.35296 33.2754 8.45106 33.7842 8.64454C34.2399 8.81754 34.7502 8.58896 34.9237 8.13297C35.0971 7.67699 34.8681 7.16683 34.4121 6.99348C33.7021 6.72345 32.9563 6.58649 32.1954 6.58649C28.7562 6.58649 25.9583 9.38446 25.9583 12.8237C25.9583 16.2629 28.7562 19.0608 32.1954 19.0608C35.6346 19.0608 38.4327 16.2629 38.4327 12.8237C38.4327 11.947 38.2528 11.097 37.8979 10.2973C37.7001 9.8514 37.178 9.65049 36.7323 9.84822Z" fill="#FF7300"/>
<path d="M59.2298 37.6859C60.0415 37.6859 60.7018 37.0256 60.7018 36.2139V29.7721C60.7018 28.9604 60.0415 28.3001 59.2298 28.3001H49.8589C49.9689 28.1529 50.0347 27.9707 50.0347 27.7729V26.3597C50.0347 25.8719 49.6394 25.4764 49.1515 25.4764C48.6636 25.4764 48.2682 25.8719 48.2682 26.3597V27.7729C48.2682 27.9707 48.3341 28.1529 48.4441 28.3001H39.0732C38.2614 28.3001 37.6011 28.9604 37.6011 29.7721V36.2139C37.6011 37.0256 38.2614 37.6859 39.0732 37.6859H48.2682V39.457H39.0732C38.2614 39.457 37.6011 40.1173 37.6011 40.9291V47.3708C37.6011 48.1825 38.2614 48.8428 39.0732 48.8428H48.2682V50.614H39.0732C38.2614 50.614 37.6011 51.2743 37.6011 52.0861V54.4354C37.1783 54.5012 36.8545 54.8658 36.8545 55.3069C36.8545 55.7481 37.1783 56.1127 37.6011 56.1785V58.5278C37.6011 59.3396 38.2614 59.9999 39.0732 59.9999H59.2298C60.0415 59.9999 60.7018 59.3396 60.7018 58.5278V52.0861C60.7018 51.2743 60.0415 50.614 59.2298 50.614H50.0347V48.8428H52.3406C52.8285 48.8428 53.2238 48.4474 53.2238 47.9596C53.2238 47.4718 52.8285 47.0764 52.3406 47.0764H39.3676V41.2235H58.9354V47.0764H56.4623C55.9744 47.0764 55.5791 47.4718 55.5791 47.9596C55.5791 48.4474 55.9744 48.8428 56.4623 48.8428H59.2298C60.0415 48.8428 60.7018 48.1825 60.7018 47.3708V40.9291C60.7018 40.1173 60.0415 39.457 59.2298 39.457H50.0347V37.6859H59.2298ZM58.9354 52.3805V58.2334H39.3676V52.3805H58.9354ZM39.3676 35.9195V30.0666H58.9354V35.9195H39.3676Z" fill="#348FD9"/>
<path d="M55.6277 32.11H42.6747C42.1868 32.11 41.7915 32.5055 41.7915 32.9933C41.7915 33.481 42.1868 33.8765 42.6747 33.8765H55.6277C56.1156 33.8765 56.5109 33.481 56.5109 32.9933C56.5109 32.5055 56.1156 32.11 55.6277 32.11Z" fill="#348FD9"/>
<path d="M56.5109 44.1505C56.5109 43.6627 56.1156 43.2672 55.6277 43.2672H42.6747C42.1868 43.2672 41.7915 43.6627 41.7915 44.1505C41.7915 44.6383 42.1868 45.0337 42.6747 45.0337H55.6277C56.1156 45.0337 56.5109 44.6383 56.5109 44.1505Z" fill="#348FD9"/>
<path d="M42.6747 56.19H55.6277C56.1156 56.19 56.5109 55.7945 56.5109 55.3067C56.5109 54.8189 56.1156 54.4235 55.6277 54.4235H42.6747C42.1868 54.4235 41.7915 54.8189 41.7915 55.3067C41.7915 55.7945 42.1868 56.19 42.6747 56.19Z" fill="#348FD9"/>
</svg>
