<svg width="257" height="292" viewBox="0 0 257 292" fill="none" xmlns="http://www.w3.org/2000/svg">
<path d="M243.276 260.401V60.4618C243.274 44.4996 236.938 29.1921 225.663 17.9057C214.388 6.61926 199.097 0.278068 183.153 0.276673H60.9709C53.0756 0.275981 45.2575 1.8322 37.963 4.85648C30.6685 7.88075 24.0406 12.3138 18.4575 17.9026C12.8745 23.4914 8.4457 30.1264 5.42415 37.4287C2.4026 44.731 0.847412 52.5577 0.847412 60.4618V262.881C0.847412 263.597 1.13165 264.284 1.63757 264.791C2.1435 265.297 2.82967 265.582 3.54516 265.582H3.72921C4.41097 265.534 5.0493 265.229 5.51569 264.729C5.98208 264.229 6.24193 263.57 6.24291 262.886V60.4618C6.25961 45.9365 12.0311 32.011 22.2911 21.7405C32.5511 11.4701 46.4617 5.69349 60.9709 5.67817H183.153C197.661 5.69489 211.571 11.4721 221.829 21.7424C232.088 32.0127 237.859 45.9374 237.876 60.4618V260.407C233.978 261.089 230.478 263.21 228.066 266.35C225.654 269.489 224.506 273.42 224.847 277.366C225.188 281.313 226.995 284.987 229.91 287.665C232.826 290.343 236.638 291.829 240.595 291.831C241.494 291.832 242.391 291.754 243.276 291.599C246.954 290.97 250.29 289.059 252.695 286.204C255.101 283.35 256.42 279.735 256.42 276C256.42 272.266 255.101 268.651 252.695 265.797C250.29 262.942 246.954 261.031 243.276 260.401ZM240.595 286.424C238.535 286.421 236.522 285.807 234.811 284.659C233.099 283.511 231.767 281.88 230.981 279.974C230.195 278.068 229.991 275.971 230.395 273.949C230.799 271.927 231.793 270.07 233.251 268.613C234.709 267.156 236.566 266.165 238.587 265.765C240.608 265.364 242.702 265.572 244.604 266.363C246.507 267.153 248.132 268.491 249.276 270.206C250.419 271.922 251.029 273.938 251.028 276C251.027 277.372 250.755 278.731 250.229 279.998C249.702 281.264 248.931 282.415 247.96 283.383C246.989 284.351 245.837 285.118 244.569 285.64C243.302 286.162 241.944 286.428 240.573 286.424H240.595Z" fill="#666666"/>
</svg>
