<svg width="270" height="397" viewBox="0 0 270 397" fill="none" xmlns="http://www.w3.org/2000/svg">
<path d="M256.243 105.312C255.499 105.201 254.749 105.147 253.997 105.148C250.076 105.145 246.293 106.601 243.383 109.233C240.474 111.865 238.645 115.486 238.252 119.392C237.859 123.298 238.929 127.211 241.256 130.371C243.582 133.532 246.999 135.714 250.842 136.494V336.534C250.825 351.058 245.055 364.983 234.796 375.253C224.537 385.523 210.628 391.301 196.119 391.317H73.9372C59.429 391.301 45.5197 385.523 35.2609 375.253C25.002 364.983 19.2312 351.058 19.2145 336.534V31.8387C23.116 31.1624 26.6221 29.0455 29.0398 25.9063C31.4575 22.7671 32.6108 18.8341 32.2718 14.8847C31.9328 10.9353 30.1261 7.25698 27.2089 4.57673C24.2917 1.89647 20.4763 0.409363 16.5168 0.409363C12.5572 0.409363 8.74176 1.89647 5.82456 4.57673C2.90735 7.25698 1.1007 10.9353 0.761706 14.8847C0.42271 18.8341 1.57604 22.7671 3.99373 25.9063C6.41142 29.0455 9.91752 31.1624 13.819 31.8387V336.534C13.8204 352.496 20.1545 367.804 31.4284 379.091C42.7023 390.379 57.9928 396.721 73.9372 396.724H196.125C204.02 396.724 211.838 395.167 219.132 392.142C226.426 389.117 233.054 384.684 238.636 379.094C244.219 373.505 248.647 366.87 251.668 359.567C254.689 352.264 256.244 344.438 256.243 336.534V136.668C260.027 136.147 263.495 134.272 266.005 131.39C268.515 128.508 269.898 124.814 269.898 120.99C269.898 117.166 268.515 113.471 266.005 110.589C263.495 107.707 260.027 105.832 256.243 105.312ZM6.10439 16.2449C6.10335 14.1818 6.71359 12.1646 7.85789 10.4488C9.00219 8.73289 10.6291 7.39533 12.5329 6.60531C14.4367 5.8153 16.5318 5.60832 18.5531 6.01057C20.5744 6.41281 22.4311 7.40621 23.8884 8.86508C25.3456 10.3239 26.3379 12.1827 26.7397 14.2063C27.1415 16.2298 26.9348 18.3272 26.1456 20.2331C25.3565 22.139 24.0204 23.7678 22.3064 24.9134C20.5925 26.059 18.5776 26.6699 16.5168 26.6688C13.7561 26.6661 11.1093 25.5669 9.15718 23.6127C7.20508 21.6584 6.10718 19.0086 6.10439 16.2449ZM253.997 131.424C251.263 131.429 248.637 130.356 246.686 128.438C244.735 126.52 243.615 123.911 243.57 121.174C243.524 118.437 244.556 115.792 246.442 113.81C248.328 111.828 250.917 110.668 253.65 110.582H253.997C255.385 110.55 256.764 110.797 258.055 111.307C259.346 111.817 260.522 112.58 261.515 113.551C262.507 114.522 263.295 115.682 263.833 116.963C264.372 118.244 264.649 119.619 264.649 121.008C264.649 122.397 264.372 123.773 263.833 125.053C263.295 126.334 262.507 127.494 261.515 128.465C260.522 129.436 259.346 130.199 258.055 130.709C256.764 131.219 255.385 131.466 253.997 131.435V131.424Z" fill="#666666"/>
</svg>
