<svg width="55" height="60" viewBox="0 0 55 60" fill="none" xmlns="http://www.w3.org/2000/svg">
<path d="M51.4366 15.2014C51.4497 15.1055 51.4967 15.0152 51.5641 14.9461L54.3214 12.2584C54.5868 11.9996 54.4403 11.549 54.0736 11.4958L50.2631 10.942C50.1175 10.9209 49.9915 10.8294 49.9264 10.6974L48.2224 7.24447C48.0584 6.91216 47.5845 6.91216 47.4206 7.24447L45.7165 10.6974C45.6513 10.8294 45.5255 10.9208 45.3799 10.942H45.3798L44.0913 11.1292L41.8863 11.5159C41.5197 11.569 41.3737 12.0201 41.6391 12.2783L44.3228 14.9098C44.4289 15.0135 44.4772 15.1607 44.4519 15.3066L43.8234 18.6537C43.7619 19.0192 44.1443 19.2979 44.4724 19.1254L47.6184 17.6265C47.7487 17.5578 47.9043 17.5578 48.0346 17.6265L51.2169 19.3614C51.545 19.5339 51.9286 19.2553 51.8659 18.8898L51.6427 16.5471L51.4362 15.3422C51.432 15.2953 51.4263 15.248 51.4366 15.2014Z" fill="#FF9137"/>
<path d="M51.437 19.6087L48.0295 17.8163C47.8992 17.7475 47.7436 17.7475 47.6133 17.8163L44.2046 19.6087C43.8765 19.7812 43.4941 19.5026 43.5556 19.1371L44.207 15.3423C44.2323 15.1964 44.184 15.0492 44.0779 14.9455L41.3217 12.258C41.0563 11.9999 41.2023 11.5488 41.569 11.4957L44.0912 11.129C45.0405 14.2664 47.9547 16.551 51.4021 16.551C51.4829 16.551 51.5625 16.5498 51.6421 16.5473L52.086 19.1371C52.1487 19.5026 51.7651 19.7812 51.437 19.6087Z" fill="#FF7300"/>
<path d="M10.8458 15.2014C10.8589 15.1055 10.9058 15.0152 10.9733 14.9461L13.7306 12.2584C13.9959 11.9996 13.8495 11.549 13.4828 11.4958L9.67224 10.942C9.52664 10.9209 9.40072 10.8294 9.33558 10.6974L7.63155 7.24447C7.46763 6.91216 6.9937 6.91216 6.82978 7.24447L5.12563 10.6974C5.0605 10.8294 4.93469 10.9208 4.7891 10.942H4.78898L3.50049 11.1292L1.29552 11.5159C0.928831 11.569 0.782878 12.0201 1.04825 12.2783L3.73197 14.9098C3.83811 15.0135 3.88636 15.1607 3.86103 15.3066L3.23259 18.6537C3.17107 19.0192 3.55344 19.2979 3.88154 19.1254L7.0276 17.6265C7.15787 17.5578 7.31347 17.5578 7.44375 17.6265L10.6261 19.3614C10.9542 19.5339 11.3378 19.2553 11.2751 18.8898L11.0519 16.5471L10.8454 15.3422C10.8413 15.2953 10.8356 15.248 10.8458 15.2014Z" fill="#FF9137"/>
<path d="M10.8462 19.6087L7.43865 17.8163C7.30838 17.7475 7.15278 17.7475 7.02251 17.8163L3.61373 19.6087C3.28564 19.7812 2.90327 19.5026 2.96478 19.1371L3.61614 15.3423C3.64147 15.1964 3.59322 15.0492 3.48708 14.9455L0.730864 12.258C0.465495 11.9999 0.611448 11.5488 0.978139 11.4957L3.50034 11.129C4.44964 14.2664 7.36387 16.551 10.8112 16.551C10.8921 16.551 10.9717 16.5498 11.0513 16.5473L11.4952 19.1371C11.5579 19.5026 11.1743 19.7812 10.8462 19.6087Z" fill="#FF7300"/>
<path d="M30.3624 32.2866L31.0334 28.6896C31.3749 26.8592 30.6806 25.0255 29.2957 23.8802C28.9996 23.6353 28.5285 23.721 28.1726 23.5458C27.3387 23.1354 26.9275 23.754 26.6301 24.638L23.2636 34.7937C22.3416 37.5337 21.4282 40.6663 18.8682 41.9883V54.8586C18.8682 56.9668 19.2873 59.9942 24.1757 59.9942L36.1856 59.9988L41.5459 58.2789V40.0128L36.4214 37.8961H34.9525C31.9765 37.896 29.814 35.2258 30.3624 32.2866Z" fill="#F2D1A5"/>
<path d="M20.1911 54.4616V43.2239C20.1911 42.4319 20.5438 41.6796 21.1581 41.1798C23.1749 39.5395 24.7033 36.5323 25.4882 34.1997L28.6953 24.669C28.8087 24.3318 29.0252 24.063 29.2953 23.8812C28.9991 23.6362 28.6719 23.422 28.316 23.2467C27.4821 22.8362 26.4791 23.2559 26.1817 24.1398L22.9746 33.6705C22.0526 36.4104 20.1052 39.2602 17.5452 40.5821L16.2222 48.9474L17.5452 56.1814C17.5452 58.2897 19.7138 59.9943 24.602 59.9943C24.6021 59.9943 20.1224 59.181 20.1911 54.4616Z" fill="#F2BB88"/>
<path d="M42.3795 59.3372H36.1859C34.7884 59.3372 34.4492 58.8658 34.4492 57.4683C34.4492 56.0707 34.7884 54.9378 36.1859 54.9378H36.381L39.5701 53.6149L42.5118 54.9378C43.4245 54.9378 44.1644 55.6777 44.1644 56.5904V57.4201C44.1644 58.3328 43.2923 59.3372 42.3795 59.3372Z" fill="#F2D1A5"/>
<path d="M38.8316 57.3528C37.4731 57.3528 36.3678 56.2814 36.307 54.9379H36.1857C34.7882 54.9379 33.6553 56.0707 33.6553 57.4683C33.6553 58.8658 34.7882 59.9987 36.1857 59.9987H42.5116C43.4242 59.9987 44.1641 59.2588 44.1641 58.3462V57.3528H38.8316Z" fill="#F2BB88"/>
<path d="M42.6091 54.144L36.4958 54.2763C34.9271 54.4087 34.5815 52.2551 34.5815 52.0975H34.4492C34.4492 50.5289 34.9271 49.2573 36.4957 49.2573L39.4714 47.9343L43.5351 49.2573C44.6759 49.2573 45.6007 50.1821 45.6007 51.3229V52.343C45.6007 53.4837 43.7499 54.2763 42.6091 54.144Z" fill="#F2D1A5"/>
<path d="M39.1415 52.2919C37.5728 52.2919 36.3012 51.0203 36.3012 49.4516C36.3012 49.3891 36.3067 49.3279 36.3105 49.2665C34.8286 49.3623 33.6553 50.5913 33.6553 52.0975C33.6553 53.6662 34.9269 54.9378 36.4956 54.9378H43.5349C44.6758 54.9378 45.6006 54.013 45.6006 52.8722V52.292H39.1415V52.2919Z" fill="#F2BB88"/>
<path d="M44.2865 48.4635L36.4586 48.5958C34.8899 48.5958 34.4121 47.9857 34.4121 46.417C34.4121 44.8483 34.89 43.5767 36.4586 43.5767L40.3215 42.2537L43.6767 43.5767H45.3449C46.4858 43.5767 47.4106 44.5015 47.4106 45.6424V46.6625C47.4106 47.8032 45.4273 48.4635 44.2865 48.4635Z" fill="#F2D1A5"/>
<path d="M39.1044 46.6113C37.5357 46.6113 36.2641 45.3397 36.2641 43.771C36.2641 43.7086 36.2694 43.6474 36.2734 43.586C34.7915 43.6818 33.6182 44.9108 33.6182 46.417C33.6182 47.9857 34.8898 49.2573 36.4584 49.2573H45.3448C46.4856 49.2573 47.4104 48.3325 47.4104 47.1916V46.6114H39.1044V46.6113Z" fill="#F2BB88"/>
<path d="M42.3445 42.9151H36.4958C34.9271 42.9151 34.5815 40.7363 34.5815 40.7363C34.5815 39.1676 34.9271 37.896 36.4958 37.896H43.5352C44.676 37.896 45.6008 38.8208 45.6008 39.9617V40.9818C45.6008 42.1226 43.4854 42.9151 42.3445 42.9151Z" fill="#F2D1A5"/>
<path d="M39.1415 40.9307C37.5728 40.9307 36.3012 39.6591 36.3012 38.0904C36.3012 38.0279 36.3067 37.9668 36.3105 37.9054C34.8286 38.0012 33.6553 39.2302 33.6553 40.7364C33.6553 42.3051 34.9269 43.5767 36.4956 43.5767H43.5349C44.6758 43.5767 45.6006 42.6519 45.6006 41.511V40.9308H39.1415V40.9307Z" fill="#F2BB88"/>
<path d="M14.6455 59.181H13.0137C11.9177 59.181 11.8132 57.3721 11.8132 56.2761L11.7456 40.7363C11.7456 39.6403 11.9177 37.896 13.0137 37.896H15.5609C16.6569 37.896 17.5454 38.7845 17.5454 39.8805V58.0143C17.5454 59.1103 15.7415 59.181 14.6455 59.181Z" fill="#4DB7E5"/>
<path d="M14.3368 57.3528C13.9714 57.3528 13.6753 57.0567 13.6753 56.6913V37.896H13.0138C11.9178 37.896 11.0293 38.7845 11.0293 39.8805V58.0143C11.0293 59.1103 11.9178 59.9988 13.0138 59.9988H15.5609C16.6569 59.9988 17.5454 59.1103 17.5454 58.0143V57.3528H14.3368Z" fill="#348FD9"/>
<path d="M33.1353 12.775C33.1509 12.6122 33.2223 12.4583 33.3413 12.3416L37.6217 8.16932C38.0336 7.76777 37.8063 7.06817 37.237 6.98542L31.3216 6.12587C31.0955 6.09306 30.9001 5.95109 30.799 5.74615L28.1537 0.385949C27.8991 -0.129952 27.1635 -0.129952 26.9089 0.385949L24.2634 5.74615C24.1628 5.95 23.9651 6.0933 23.7411 6.12538L21.8279 6.40354L18.8683 7.41206C18.299 7.49529 18.071 8.19489 18.4835 8.59536L22.5489 12.4171C22.7129 12.5776 22.7877 12.8068 22.7491 13.0323L21.3849 18.2936C21.2884 18.8605 21.883 19.2936 22.3921 19.0258L27.2031 16.0352C27.4057 15.9279 27.647 15.9279 27.8496 16.0352L32.595 18.7043C33.104 18.9721 33.6999 18.5391 33.6022 17.9722L33.4635 14.8342L33.1419 12.9596C33.1328 12.8981 33.1278 12.8362 33.1353 12.775Z" fill="#FF9137"/>
<path d="M33.145 19.5797L27.8545 16.7981C27.6518 16.6908 27.4106 16.6908 27.2079 16.7981L21.9175 19.5797C21.4084 19.8475 20.8138 19.4144 20.9103 18.8475L21.9211 12.9563C21.9597 12.7308 21.8849 12.5016 21.7209 12.3412L17.4411 8.16884C17.0285 7.76838 17.2565 7.06877 17.8258 6.98554L21.8281 6.40414C22.8268 11.2544 27.1198 14.902 32.2655 14.902C32.6708 14.902 33.0701 14.879 33.4633 14.8344L34.152 18.8475C34.2497 19.4144 33.654 19.8475 33.145 19.5797Z" fill="#FF7300"/>
</svg>
