<svg width="66" height="60" viewBox="0 0 66 60" fill="none" xmlns="http://www.w3.org/2000/svg">
<path d="M62.9486 5.3387C62.9486 7.58513 61.1272 9.4065 58.8808 9.4065C56.6344 9.4065 54.813 7.58513 54.813 5.3387C54.813 3.09228 56.6344 1.2709 58.8808 1.2709C61.1272 1.2709 62.9486 3.09228 62.9486 5.3387Z" fill="#FF9137"/>
<path d="M28.3302 16.7375C28.3302 18.984 26.5088 20.8053 24.2624 20.8053C22.0155 20.8053 20.1946 18.984 20.1946 16.7375C20.1946 14.4906 22.0155 12.6697 24.2624 12.6697C26.5088 12.6697 28.3302 14.4906 28.3302 16.7375Z" fill="#FF9137"/>
<path d="M45.6527 20.8051C45.6527 23.0515 43.8318 24.8729 41.5849 24.8729C39.3385 24.8729 37.5171 23.0515 37.5171 20.8051C37.5171 18.5582 39.3385 16.7373 41.5849 16.7373C43.8318 16.7373 45.6527 18.5582 45.6527 20.8051Z" fill="#FF9137"/>
<path d="M11.0843 32.5426C11.0843 34.789 9.26295 36.6104 7.01653 36.6104C4.7701 36.6104 2.94873 34.789 2.94873 32.5426C2.94873 30.2962 4.7701 28.4748 7.01653 28.4748C9.26295 28.4748 11.0843 30.2962 11.0843 32.5426Z" fill="#FF9137"/>
<path d="M1.67725 44.025H12.3552V58.7285H1.67725V44.025Z" fill="#4DB7E5"/>
<path d="M18.9236 28.2205H29.6016V58.729H18.9236V28.2205Z" fill="#4DB7E5"/>
<path d="M36.2463 32.2881H46.9243V58.7288H36.2463V32.2881Z" fill="#4DB7E5"/>
<path d="M53.542 16.8217H64.22V58.7286H53.542V16.8217Z" fill="#4DB7E5"/>
<path d="M12.3554 42.7541H1.67744C0.975304 42.7541 0.40625 43.3231 0.40625 44.0253V58.7288C0.40625 59.431 0.975304 60 1.67744 60H12.3554C13.0575 60 13.6266 59.431 13.6266 58.7288V44.0253C13.6266 43.3236 13.0575 42.7541 12.3554 42.7541ZM11.0842 57.4576H2.94862V45.2965H11.0842V57.4576Z" fill="#348FD9"/>
<path d="M29.6013 26.949H18.9233C18.2212 26.949 17.6521 27.5181 17.6521 28.2202V58.7287C17.6521 59.4308 18.2212 59.9999 18.9233 59.9999H29.6013C30.3034 59.9999 30.8724 59.4308 30.8724 58.7287V28.2202C30.8724 27.5181 30.3029 26.949 29.6013 26.949ZM28.3301 57.4575H20.1945V29.4914H28.3301V57.4575Z" fill="#348FD9"/>
<path d="M46.924 31.0172H36.246C35.5444 31.0172 34.9749 31.5862 34.9749 32.2884V58.729C34.9749 59.4312 35.5444 60.0002 36.246 60.0002H46.924C47.6261 60.0002 48.1952 59.4312 48.1952 58.729V32.2884C48.1952 31.5862 47.6261 31.0172 46.924 31.0172ZM45.6528 57.4579H37.5172V33.5596H45.6528V57.4579Z" fill="#348FD9"/>
<path d="M7.01623 37.8814C9.96032 37.8814 12.3552 35.4865 12.3552 32.5424C12.3552 31.6133 12.1159 30.7389 11.6968 29.9772L21.2997 21.1767C22.1478 21.7442 23.1668 22.0764 24.2622 22.0764C26.3343 22.0764 28.1328 20.8892 29.0172 19.1597L36.2476 20.8574C36.2759 23.7776 38.6588 26.1442 41.5855 26.1442C44.5291 26.1442 46.9245 23.7493 46.9245 20.8053C46.9245 19.899 46.6966 19.0455 46.2969 18.2971L55.8645 9.74146C56.7231 10.3314 57.7619 10.678 58.8806 10.678C61.8247 10.678 64.2196 8.28307 64.2196 5.33898C64.2196 2.3949 61.8247 0 58.8806 0C55.9366 0 53.5417 2.3949 53.5417 5.33898C53.5417 6.2452 53.7691 7.09878 54.1693 7.84709L44.6011 16.4028C43.7426 15.8124 42.7038 15.4663 41.5851 15.4663C39.5134 15.4663 37.7144 16.6535 36.83 18.3825L29.5997 16.6848C29.5713 13.7651 27.1884 11.3985 24.2617 11.3985C21.3181 11.3985 18.9227 13.7934 18.9227 16.7375C18.9227 17.6665 19.162 18.541 19.5811 19.3027L9.97869 28.1032C9.13057 27.5351 8.11163 27.2034 7.01623 27.2034C4.07214 27.2034 1.67725 29.5983 1.67725 32.5424C1.67725 35.4865 4.07214 37.8814 7.01623 37.8814ZM58.8806 2.54237C60.4229 2.54237 61.6772 3.79668 61.6772 5.33898C61.6772 6.88129 60.4229 8.13559 58.8806 8.13559C57.3383 8.13559 56.084 6.88129 56.084 5.33898C56.084 3.79668 57.3383 2.54237 58.8806 2.54237ZM41.5851 18.0086C43.1274 18.0086 44.3817 19.2629 44.3817 20.8053C44.3817 22.3471 43.1274 23.6019 41.5851 23.6019C40.0432 23.6019 38.7884 22.3471 38.7884 20.8053C38.7884 19.2629 40.0432 18.0086 41.5851 18.0086ZM24.2622 13.9408C25.804 13.9408 27.0588 15.1951 27.0588 16.7375C27.0588 18.2793 25.804 19.5341 24.2622 19.5341C22.7199 19.5341 21.4655 18.2793 21.4655 16.7375C21.4655 15.1951 22.7199 13.9408 24.2622 13.9408ZM7.01623 29.7458C8.55854 29.7458 9.81284 31.0001 9.81284 32.5424C9.81284 34.0847 8.55854 35.339 7.01623 35.339C5.47392 35.339 4.21962 34.0847 4.21962 32.5424C4.21962 31.0001 5.47392 29.7458 7.01623 29.7458Z" fill="#FF7300"/>
<path d="M64.2197 15.5508H53.5417C52.8396 15.5508 52.2705 16.1198 52.2705 16.822V32.0549C52.2705 32.757 52.8396 33.326 53.5417 33.326C54.2438 33.326 54.8129 32.757 54.8129 32.0549V18.0932H62.9485V57.4577H54.8129V43.496C54.8129 42.7939 54.2438 42.2248 53.5417 42.2248C52.8396 42.2248 52.2705 42.7939 52.2705 43.496V58.7289C52.2705 59.431 52.8396 60.0001 53.5417 60.0001H64.2197C64.9218 60.0001 65.4908 59.431 65.4908 58.7289V16.822C65.4908 16.1203 64.9218 15.5508 64.2197 15.5508Z" fill="#348FD9"/>
<path d="M53.5417 39.0474C53.8759 39.0474 54.2041 38.9114 54.4405 38.6745C54.6768 38.4382 54.8129 38.1104 54.8129 37.7763C54.8129 37.4406 54.6768 37.1138 54.4405 36.8775C54.2041 36.6396 53.8759 36.5051 53.5417 36.5051C53.2075 36.5051 52.8793 36.6396 52.6429 36.8775C52.4066 37.1138 52.2705 37.4406 52.2705 37.7763C52.2705 38.1104 52.4066 38.4382 52.6429 38.6745C52.8793 38.9114 53.2075 39.0474 53.5417 39.0474Z" fill="#348FD9"/>
</svg>
